<?xml version="1.0" encoding="iso-8859-1"?>
<!-- Generator: Adobe Illustrator 19.0.0, SVG Export Plug-In . SVG Version: 6.00 Build 0)  -->
<svg xmlns="http://www.w3.org/2000/svg" xmlns:xlink="http://www.w3.org/1999/xlink" version="1.1" id="Layer_1" x="0px" y="0px" viewBox="0 0 496 496" style="enable-background:new 0 0 496 496;" xml:space="preserve">
<g>
	<path style="fill:#333333;" d="M65.136,119.996c-2.288,0-4.592-0.448-6.792-1.352c-5.504-2.28-9.488-7.136-10.632-12.976   c-0.136-0.712-0.68-1.248-1.384-1.384c-5.84-1.152-10.688-5.128-12.968-10.624c-2.28-5.504-1.656-11.744,1.664-16.688   c0.4-0.592,0.4-1.352,0.008-1.936c-3.336-4.968-3.952-11.208-1.664-16.72c2.28-5.496,7.136-9.464,12.976-10.6   c0.688-0.136,1.232-0.672,1.368-1.368c1.152-5.856,5.128-10.712,10.632-12.992s11.752-1.648,16.688,1.672   c0.584,0.4,1.368,0.392,1.952-0.008c4.936-3.304,11.152-3.944,16.672-1.664c5.504,2.28,9.488,7.136,10.632,12.976   c0.136,0.712,0.68,1.248,1.384,1.384c5.832,1.144,10.68,5.112,12.96,10.6c2.288,5.504,1.672,11.752-1.656,16.704   c-0.4,0.6-0.4,1.36,0,1.952c3.32,4.944,3.944,11.176,1.664,16.688c-2.28,5.504-7.128,9.48-12.968,10.624   c-0.704,0.136-1.248,0.672-1.384,1.368c-1.152,5.856-5.128,10.712-10.632,12.992c-5.504,2.288-11.752,1.64-16.688-1.672   c-0.576-0.408-1.352-0.408-1.944,0C72.056,118.972,68.608,119.996,65.136,119.996z M65.144,48.004c-0.264,0-0.496,0.064-0.68,0.144   c-0.4,0.168-0.896,0.512-1.048,1.28c-1.392,7.088-6.888,12.592-13.992,13.992c-0.768,0.152-1.12,0.648-1.28,1.04   s-0.272,1.008,0.16,1.656c4.04,5.992,4.048,13.768,0,19.784c-0.432,0.64-0.328,1.248-0.168,1.64c0.168,0.4,0.512,0.896,1.28,1.048   c7.112,1.4,12.6,6.896,13.992,14.008c0.152,0.752,0.648,1.104,1.048,1.264c0.4,0.168,1.008,0.256,1.632-0.168   c6.016-4.032,13.792-4.048,19.808,0c0.64,0.424,1.232,0.336,1.64,0.168c0.4-0.168,0.896-0.512,1.048-1.28   c1.392-7.096,6.88-12.592,13.992-13.992c0.768-0.152,1.12-0.648,1.28-1.048c0.168-0.392,0.264-1-0.168-1.64   c-4.048-6.016-4.04-13.792,0.008-19.8c0.424-0.632,0.32-1.248,0.16-1.64s-0.512-0.888-1.264-1.04   c-7.128-1.4-12.616-6.896-14.008-14.008c-0.152-0.752-0.648-1.104-1.048-1.264c-0.408-0.168-1.008-0.264-1.632,0.168l-0.016,0.008   c-6.016,4.016-13.768,4.016-19.784,0C65.768,48.084,65.432,48.004,65.144,48.004z"/>
	<path style="fill:#333333;" d="M409.136,463.996c-2.288,0-4.592-0.448-6.792-1.352c-5.504-2.28-9.488-7.136-10.632-12.976   c-0.136-0.712-0.68-1.248-1.384-1.384c-5.84-1.152-10.688-5.128-12.968-10.624c-2.28-5.504-1.656-11.744,1.664-16.688   c0.4-0.592,0.4-1.352,0.008-1.936c-3.336-4.968-3.952-11.208-1.664-16.72c2.28-5.496,7.136-9.464,12.976-10.6   c0.688-0.136,1.232-0.672,1.368-1.368c1.152-5.856,5.128-10.712,10.632-12.992s11.752-1.64,16.688,1.672   c0.584,0.4,1.368,0.392,1.952-0.008c4.936-3.304,11.152-3.944,16.672-1.664c5.504,2.28,9.488,7.136,10.632,12.976   c0.136,0.712,0.68,1.248,1.384,1.384c5.832,1.144,10.68,5.112,12.96,10.6c2.288,5.504,1.672,11.752-1.656,16.704   c-0.4,0.6-0.4,1.36,0,1.952c3.32,4.944,3.944,11.176,1.664,16.688c-2.28,5.504-7.128,9.48-12.968,10.624   c-0.704,0.136-1.248,0.672-1.384,1.368c-1.152,5.856-5.128,10.712-10.632,12.992c-5.504,2.288-11.752,1.64-16.688-1.672   c-0.576-0.408-1.352-0.408-1.944,0C416.056,462.972,412.608,463.996,409.136,463.996z M409.144,392.004   c-0.264,0-0.496,0.064-0.68,0.144c-0.4,0.168-0.896,0.512-1.048,1.28c-1.392,7.096-6.88,12.592-13.992,13.992   c-0.768,0.152-1.12,0.648-1.28,1.04s-0.264,1.008,0.168,1.656c4.04,5.992,4.048,13.768,0,19.784   c-0.432,0.64-0.328,1.248-0.168,1.64c0.168,0.4,0.512,0.896,1.28,1.048c7.112,1.4,12.6,6.896,13.992,14.008   c0.152,0.752,0.648,1.104,1.048,1.264c0.4,0.168,1,0.256,1.632-0.168c6.016-4.032,13.792-4.048,19.808,0   c0.64,0.424,1.232,0.336,1.64,0.168c0.4-0.168,0.896-0.512,1.048-1.28c1.392-7.096,6.88-12.592,13.992-13.992   c0.768-0.152,1.12-0.648,1.28-1.048c0.168-0.392,0.264-1-0.168-1.64c-4.048-6.016-4.04-13.792,0.008-19.8   c0.424-0.632,0.32-1.248,0.16-1.64s-0.512-0.888-1.264-1.04c-7.128-1.4-12.616-6.896-14.008-14.008   c-0.152-0.752-0.648-1.104-1.048-1.264c-0.408-0.168-1.008-0.256-1.632,0.168l-0.016,0.008c-6.016,4.016-13.768,4.016-19.784,0   C409.768,392.084,409.432,392.004,409.144,392.004z"/>
</g>
<path style="fill:#F9BA48;" d="M76,495.98c-8.952,0-17.864-1.6-26.472-4.8l-11.68-4.344l53.176-53.176  c3.12-3.12,3.12-8.192,0-11.312l-17.376-17.376c-3.128-3.128-8.184-3.128-11.312,0L9.16,458.148l-4.344-11.68  c-6.08-16.344-6.392-33.832-0.896-50.544c7.432-22.624,25.376-40.568,47.992-48c15.056-4.936,30.72-5.176,45.6-0.76L347.16,97.516  c-4.432-14.888-4.176-30.544,0.76-45.592c7.432-22.624,25.376-40.568,47.992-48c16.744-5.496,34.2-5.176,50.552,0.896l11.68,4.344  L404.968,62.34c-3.12,3.12-3.12,8.192,0,11.312l17.376,17.376c3.128,3.128,8.184,3.128,11.312,0l53.176-53.176l4.344,11.68  c6.08,16.344,6.392,33.832,0.896,50.544c-7.432,22.624-25.376,40.568-47.992,48c-15.064,4.936-30.72,5.176-45.6,0.76  L148.832,398.484c4.432,14.888,4.176,30.544-0.76,45.592c-7.432,22.624-25.376,40.568-47.992,48  C92.16,494.676,84.064,495.98,76,495.98z"/>
<path style="fill:#333333;" d="M420,495.996c-41.904,0-76-34.096-76-76c0-7.24,1.064-14.456,3.168-21.512L97.52,148.836  c-7.048,2.104-14.264,3.168-21.52,3.168c-41.904,0-76-34.096-76-76s34.096-76,76-76s76,34.096,76,76  c0,7.248-1.064,14.464-3.168,21.52L398.48,347.172c7.056-2.112,14.272-3.168,21.52-3.168c41.904,0,76,34.096,76,76  S461.904,495.996,420,495.996z M101.704,130.388L365.608,394.3l-1.792,4.816c-2.536,6.816-3.816,13.84-3.816,20.88  c0,33.088,26.912,60,60,60s60-26.912,60-60s-26.912-60-60-60c-7.048,0-14.072,1.288-20.888,3.832l-4.816,1.792L130.392,101.7  l1.792-4.816C134.72,90.068,136,83.036,136,75.996c0-33.088-26.912-60-60-60s-60,26.912-60,60s26.912,60,60,60  c7.064,0,14.088-1.28,20.888-3.824L101.704,130.388z"/>

</svg>
