<?xml version="1.0" encoding="iso-8859-1"?>
<!-- Generator: Adobe Illustrator 19.0.0, SVG Export Plug-In . SVG Version: 6.00 Build 0)  -->
<svg xmlns="http://www.w3.org/2000/svg" xmlns:xlink="http://www.w3.org/1999/xlink" version="1.1" id="Layer_1" x="0px" y="0px" viewBox="0 0 496 496" style="enable-background:new 0 0 496 496;" xml:space="preserve">
<g>
	<path style="fill:#333333;" d="M472.64,111.856c-0.424-0.992-0.64-2.04-0.64-3.136V96c0-8.824-7.176-16-16-16h-16L0,169.472v59.48   l24,12l16-8l16,8l15.768-7.88l-7.16-14.312L56,223.056l-16-8l-16,8l-8-4v-36.52l338.384-68.928l-2.08,0.592l16.744,58.584L408,202   v18.896l-16.616-5.536L376,223.056l-16-8l-16,8l-16-8l-16,8l-16-8l-16,8l-16.008-8l-9.576,4.808l7.168,14.296l2.424-1.208l15.992,8   l16-8l16,8l16-8l16,8l16-8l16,8l16.616-8.304L424,243.104v-29.096l6.928,5.2c4.12,3.096,9.232,4.8,14.408,4.8H472   c13.232,0,24-10.768,24-24v-33.64L472.64,111.856z M480,200c0,4.416-3.584,8-8,8h-26.664c-1.728,0-3.432-0.56-4.808-1.592   l-57.576-43.184l-14.968-52.384l72.824-14.832H456v12.72c0,3.28,0.656,6.472,1.944,9.456L480,169.64V200z"/>
	<path style="fill:#333333;" d="M388.384,122.656l31.328,62.664l47.904-11.976l-31.328-62.664L388.384,122.656z M428.288,166.68   l-16.672-33.336l16.096-4.024l16.672,33.336L428.288,166.68z"/>
</g>
<circle style="fill:#F9BA48;" cx="164" cy="292" r="124"/>
<g>
</g>
<g>
</g>
<g>
</g>
<g>
</g>
<g>
</g>
<g>
</g>
<g>
</g>
<g>
</g>
<g>
</g>
<g>
</g>
<g>
</g>
<g>
</g>
<g>
</g>
<g>
</g>
<g>
</g>
</svg>
