<?xml version="1.0" encoding="iso-8859-1"?>
<!-- Generator: Adobe Illustrator 19.0.0, SVG Export Plug-In . SVG Version: 6.00 Build 0)  -->
<svg xmlns="http://www.w3.org/2000/svg" xmlns:xlink="http://www.w3.org/1999/xlink" version="1.1" id="Layer_1" x="0px" y="0px" viewBox="0 0 496 496" style="enable-background:new 0 0 496 496;" xml:space="preserve">
<rect x="128" y="224" style="fill:#F9BA48;" width="240" height="56"/>
<path style="fill:#333333;" d="M152,224h16v-40h24v24h16v-24h32v24h16v-24h32v24h16v-24h24v40h16v-40h24V56  c0-30.872-25.128-56-56-56H184c-30.872,0-56,25.128-56,56v128h24V224z M144,168v-40h176v-16H144V56c0-13.016,6.344-24.488,16-31.792  V64h16V16.808c2.584-0.528,5.264-0.808,8-0.808h8v48h16V16h16v48h16V16h16v48h16V16h16v48h16V16h8c2.736,0,5.416,0.28,8,0.808V64h16  V24.208c9.656,7.304,16,18.776,16,31.792v56h-16v16h16v40h-8H152H144z"/>
<path style="fill:#F9BA48;" d="M400,496H96v-72h304V496z"/>
<g>
	<path style="fill:#333333;" d="M456,296h-8c-22.056,0-40,17.944-40,40h-37.624l-1.464-10.264   c-1.12-7.832-7.936-13.736-15.848-13.736H344v-32h-16v32H168v-32h-16v32h-9.064c-7.912,0-14.728,5.904-15.84,13.736L125.624,336H88   c0-22.056-17.944-40-40-40h-8c-22.056,0-40,17.944-40,40v56c0,22.056,17.944,40,40,40h8c19.32,0,35.48-13.768,39.192-32h29.288   l-3.424,24h16.168l13.712-96H152h192h9.064l13.712,96h16.168l-3.424-24h29.288c3.72,18.232,19.872,32,39.192,32h8   c22.056,0,40-17.944,40-40v-56C496,313.944,478.056,296,456,296z M118.768,384H72v8c0,13.232-10.768,24-24,24h-8   c-13.232,0-24-10.768-24-24v-56c0-13.232,10.768-24,24-24h8c13.232,0,24,10.768,24,24v16h51.344L118.768,384z M480,392   c0,13.232-10.768,24-24,24h-8c-13.232,0-24-10.768-24-24v-8h-46.768l-4.568-32H424v-16c0-13.232,10.768-24,24-24h8   c13.232,0,24,10.768,24,24V392z"/>
	<path style="fill:#333333;" d="M328.816,374.016c-1-7.992-7.824-14.016-15.88-14.016H280h-64h-32.936   c-8.056,0-14.872,6.024-15.872,14.016L160.936,424h16.12l6-48H216v32h24v16h16v-16h24v-32h32.936l6,48h16.12L328.816,374.016z    M264,392h-32v-16h32V392z"/>
</g>
<g>
</g>
<g>
</g>
<g>
</g>
<g>
</g>
<g>
</g>
<g>
</g>
<g>
</g>
<g>
</g>
<g>
</g>
<g>
</g>
<g>
</g>
<g>
</g>
<g>
</g>
<g>
</g>
<g>
</g>
</svg>
