<?xml version="1.0" encoding="iso-8859-1"?>
<!-- Generator: Adobe Illustrator 19.0.0, SVG Export Plug-In . SVG Version: 6.00 Build 0)  -->
<svg xmlns="http://www.w3.org/2000/svg" xmlns:xlink="http://www.w3.org/1999/xlink" version="1.1" id="Layer_1" x="0px" y="0px" viewBox="0 0 496 496" style="enable-background:new 0 0 496 496;" xml:space="preserve">
<g>
	<path style="fill:#F9BA48;" d="M0,120V0h88L0,120z"/>
	<polygon style="fill:#F9BA48;" points="16,160 136,0 208,0 96,160  "/>
	<polygon style="fill:#F9BA48;" points="400,160 496,32 496,160  "/>
	<polygon style="fill:#F9BA48;" points="144,160 264,0 336,0 224,160  "/>
	<polygon style="fill:#F9BA48;" points="320,96 392,0 464,0 392,104 384,104  "/>
</g>
<path style="fill:#333333;" d="M496,0H0v160h16v336h48V160h193.584l-32.728,288H176v48h304v-32v-16V160h16V0z M48,480H32V160h16V480  z M279.144,112h97.72l38.176,336H240.96L279.144,112z M431.144,448l-32.728-288H432v288H431.144z M464,480H192v-16h31.04H432h0.96  H464V480z M464,448h-16V160h16V448z M480,144h-48h-35.408l-5.456-48h-126.28l-5.456,48H64H16V16h464V144z"/>
<g>
	<polygon style="fill:#F9BA48;" points="249.4,232 406.6,232 398.416,160 257.584,160  "/>
	<polygon style="fill:#F9BA48;" points="239.4,320 231.224,392 424.776,392 416.6,320  "/>
</g>
<g>
</g>
<g>
</g>
<g>
</g>
<g>
</g>
<g>
</g>
<g>
</g>
<g>
</g>
<g>
</g>
<g>
</g>
<g>
</g>
<g>
</g>
<g>
</g>
<g>
</g>
<g>
</g>
<g>
</g>
</svg>
