<?xml version="1.0" encoding="iso-8859-1"?>
<!-- Generator: Adobe Illustrator 19.0.0, SVG Export Plug-In . SVG Version: 6.00 Build 0)  -->
<svg xmlns="http://www.w3.org/2000/svg" xmlns:xlink="http://www.w3.org/1999/xlink" version="1.1" id="Layer_1" x="0px" y="0px" viewBox="0 0 496 496" style="enable-background:new 0 0 496 496;" xml:space="preserve">
<path style="fill:#F9BA48;" d="M355.728,311.968C346.944,321.784,334.216,328,320,328c-26.512,0-48-21.488-48-48  c0-3.224,0.328-6.368,0.936-9.416l-94.128-18.824C176.992,260.896,176,270.328,176,280c0,79.528,64.472,144,144,144  c42.64,0,80.832-18.64,107.192-48.088L355.728,311.968z"/>
<g>
	<path style="fill:#333333;" d="M447.76,274.728c0.112,1.752,0.24,3.488,0.24,5.272s-0.128,3.52-0.24,5.272l-0.152,2.256   l15.968,0.936l0.144-2.104c0.136-2.104,0.28-4.208,0.28-6.36s-0.144-4.256-0.28-6.368l-0.144-2.104l-15.968,0.936L447.76,274.728z"/>
	<path style="fill:#333333;" d="M461.632,254.592C449.376,185.872,389.816,136,320,136c-29.272,0-57.504,8.792-81.608,25.416   l9.08,13.168C268.896,159.816,293.984,152,320,152c62.048,0,114.984,44.328,125.88,105.408L461.632,254.592z"/>
	<path style="fill:#333333;" d="M496,408c0-16.648-12.808-30.2-29.064-31.704C485.712,347.752,496,314.416,496,280   c0-97.048-78.952-176-176-176c-24.912,0-48.792,5.376-70.544,14.952L112.976,11.208C103.824,3.984,92.352,0,80.68,0h-4.544   C47.392,0,24,23.392,24,52.136c0,20,11.664,38.48,29.72,47.08L96,119.344V136c0,13.232,10.768,24,24,24h61.384l7.032,3.344   c-20.2,22.72-34.736,50.76-40.984,82.144l-1.56,7.84l118.216,23.64C264.032,277.984,264,278.992,264,280c0,30.872,25.128,56,56,56   c13.184,0,25.904-4.704,35.936-13.12l79.44,71.088C433.28,398.224,432,402.944,432,408c0,5.856,1.696,11.272,4.448,16H104v-32h104   v-16H104v-40H48v40H16v-16H0v48h16v-16h32v32H32c-8.824,0-16,7.176-16,16v40H0v16h496v-16h-16v-40c0-1.432-0.248-2.8-0.608-4.12   C489.24,430.416,496,420.04,496,408z M40,52.136C40,32.208,56.208,16,76.136,16h4.544c8.088,0,16.04,2.76,22.384,7.776   l130.52,103.04c-12.04,6.816-23.168,15.08-33.28,24.464L60.592,84.768C48.088,78.808,40,65.992,40,52.136z M120,144   c-4.416,0-8-3.584-8-8v-9.04L147.784,144H120z M355.112,300.672l-5.336,5.96C342.168,315.128,331.32,320,320,320   c-22.056,0-40-17.944-40-40c0-2.608,0.264-5.248,0.784-7.84l1.568-7.84l-117.48-23.496C182.608,170.344,246.6,120,320,120   c88.224,0,160,71.776,160,160c0,36.608-12.624,71.984-35.712,100.472L355.112,300.672z M64,352h24v72H64V352z M464,480H32v-40h16   h56h360V480z M464,424c-8.824,0-16-7.176-16-16s7.176-16,16-16s16,7.176,16,16S472.824,424,464,424z"/>
</g>
<g>
</g>
<g>
</g>
<g>
</g>
<g>
</g>
<g>
</g>
<g>
</g>
<g>
</g>
<g>
</g>
<g>
</g>
<g>
</g>
<g>
</g>
<g>
</g>
<g>
</g>
<g>
</g>
<g>
</g>
</svg>
