<?xml version="1.0" encoding="iso-8859-1"?>
<!-- Generator: Adobe Illustrator 19.0.0, SVG Export Plug-In . SVG Version: 6.00 Build 0)  -->
<svg xmlns="http://www.w3.org/2000/svg" xmlns:xlink="http://www.w3.org/1999/xlink" version="1.1" id="Layer_1" x="0px" y="0px" viewBox="0 0 496 496" style="enable-background:new 0 0 496 496;" xml:space="preserve">
<g>
	<path style="fill:#F9BA48;" d="M184.468,208h-128c-8.824,0-16-7.176-16-16v-39.552L23.532,0h193.872l-16.936,152.448V192   C200.468,200.824,193.292,208,184.468,208z"/>
	<path style="fill:#F9BA48;" d="M376.468,496c-14.472,0-33.312-12.616-57.624-38.576c-24.752-26.432-38.376-61.2-38.376-97.896V312   c0-13.232,10.768-24,24-24h144c13.232,0,24,10.768,24,24v47.528c0,36.696-13.624,71.464-38.376,97.888   C409.78,483.384,390.94,496,376.468,496z"/>
</g>
<g>
	<path style="fill:#333333;" d="M144.468,424V208h-16v168h-16V208h-16v216c-13.232,0-24,10.768-24,24v48h96v-48   C168.468,434.768,157.7,424,144.468,424z M112.468,392h16v32h-16V392z M96.468,440h48c4.416,0,8,3.584,8,8v8h-64v-8   C88.468,443.584,92.052,440,96.468,440z M88.468,480v-8h64v8H88.468z"/>
	<rect x="112.468" y="112" style="fill:#333333;" width="16" height="64"/>
	<rect x="112.468" y="80" style="fill:#333333;" width="16" height="16"/>
	<path style="fill:#333333;" d="M328.468,0v48c0,13.232,10.768,24,24,24v216h16V120h16v168h16V72c13.232,0,24-10.768,24-24V0   H328.468z M408.468,16v8h-64v-8H408.468z M384.468,104h-16V72h16V104z M400.468,56h-48c-4.416,0-8-3.584-8-8v-8h64v8   C408.468,52.416,404.884,56,400.468,56z"/>
	<rect x="368.468" y="320" style="fill:#333333;" width="16" height="64"/>
	<rect x="368.468" y="400" style="fill:#333333;" width="16" height="16"/>
	<polygon style="fill:#333333;" points="215.732,11.352 201.204,4.648 152.468,110.24 152.468,154.424 185.812,204.44    199.124,195.56 168.468,149.576 168.468,113.76  "/>
	<polygon style="fill:#333333;" points="88.468,110.24 39.732,4.648 25.204,11.352 72.468,113.76 72.468,149.576 41.812,195.56    55.124,204.44 88.468,154.424  "/>
</g>
<g>
</g>
<g>
</g>
<g>
</g>
<g>
</g>
<g>
</g>
<g>
</g>
<g>
</g>
<g>
</g>
<g>
</g>
<g>
</g>
<g>
</g>
<g>
</g>
<g>
</g>
<g>
</g>
<g>
</g>
</svg>
