<?xml version="1.0" encoding="iso-8859-1"?>
<!-- Generator: Adobe Illustrator 19.0.0, SVG Export Plug-In . SVG Version: 6.00 Build 0)  -->
<svg xmlns="http://www.w3.org/2000/svg" xmlns:xlink="http://www.w3.org/1999/xlink" version="1.1" id="Layer_1" x="0px" y="0px" viewBox="0 0 488 488" style="enable-background:new 0 0 488 488;" xml:space="preserve">
<polygon style="fill:#F9BA48;" points="228,48 228,232 260,232 260,48 252,0 236,0 "/>
<path style="fill:#333333;" d="M244,488c-26.472,0-48-21.528-48-48V291.056l16-8v-14.112l-16-8V224h96v36.944l-16,8v14.112l16,8V440  C292,466.472,270.472,488,244,488z M212,300.944V440c0,17.648,14.352,32,32,32s32-14.352,32-32V300.944l-16-8v-33.888l16-8V240h-64  v11.056l16,8v33.888L212,300.944z"/>
<polygon style="fill:#F9BA48;" points="100,0 68,0 60,48 68,56 68,232 100,232 100,56 108,48 "/>
<g>
	<rect x="236" y="312" style="fill:#333333;" width="16" height="136"/>
	<path style="fill:#333333;" d="M84,488c-26.472,0-48-21.528-48-48V291.056l16-8v-14.112l-16-8V224h96v36.944l-16,8v14.112l16,8V440   C132,466.472,110.472,488,84,488z M52,300.944V440c0,17.648,14.352,32,32,32s32-14.352,32-32V300.944l-16-8v-33.888l16-8V240H52   v11.056l16,8v33.888L52,300.944z"/>
	<rect x="76" y="312" style="fill:#333333;" width="16" height="136"/>
</g>
<polygon style="fill:#F9BA48;" points="428,0 412,0 396,0 380,0 380,88 388,88 388,232 420,232 420,88 428,88 "/>
<g>
	<path style="fill:#333333;" d="M404,488c-26.472,0-48-21.528-48-48V291.056l16-8v-14.112l-16-8V224h96v36.944l-16,8v14.112l16,8   V440C452,466.472,430.472,488,404,488z M372,300.944V440c0,17.648,14.352,32,32,32s32-14.352,32-32V300.944l-16-8v-33.888l16-8V240   h-64v11.056l16,8v33.888L372,300.944z"/>
	<rect x="396" y="312" style="fill:#333333;" width="16" height="136"/>
</g>
<g>
</g>
<g>
</g>
<g>
</g>
<g>
</g>
<g>
</g>
<g>
</g>
<g>
</g>
<g>
</g>
<g>
</g>
<g>
</g>
<g>
</g>
<g>
</g>
<g>
</g>
<g>
</g>
<g>
</g>
</svg>
