<?xml version="1.0" encoding="iso-8859-1"?>
<!-- Generator: Adobe Illustrator 19.0.0, SVG Export Plug-In . SVG Version: 6.00 Build 0)  -->
<svg xmlns="http://www.w3.org/2000/svg" xmlns:xlink="http://www.w3.org/1999/xlink" version="1.1" id="Layer_1" x="0px" y="0px" viewBox="0 0 499.968 499.968" style="enable-background:new 0 0 499.968 499.968;" xml:space="preserve">
<path style="fill:#F9BA48;" d="M249.984,499.968l-5.944-6.608c-47.76-53.056-74.056-121.6-74.056-192.984V104h160v196.376  c0,71.384-26.296,139.92-74.056,192.976L249.984,499.968z"/>
<g>
	<polygon style="fill:#333333;" points="169.984,120 281.984,120 281.984,104 182.456,104 128.304,16 217.984,16 217.984,40    281.984,40 281.984,16 371.664,16 317.512,104 297.984,104 297.984,120 329.984,120 329.984,114.264 400.304,0 265.984,0    265.984,24 233.984,24 233.984,0 99.664,0 169.984,114.264  "/>
	
		<rect x="166.449" y="144.019" transform="matrix(-0.9578 0.2873 -0.2873 -0.9578 533.0768 225.8095)" style="fill:#333333;" width="167.042" height="15.999"/>
	
		<rect x="166.447" y="192.002" transform="matrix(-0.9578 0.2873 -0.2873 -0.9578 546.8596 319.7517)" style="fill:#333333;" width="167.042" height="15.999"/>
	
		<rect x="166.446" y="240.008" transform="matrix(-0.9578 0.2873 -0.2873 -0.9578 560.6492 413.7409)" style="fill:#333333;" width="167.042" height="15.999"/>
	
		<rect x="166.444" y="288.007" transform="matrix(-0.9578 0.2873 -0.2873 -0.9578 574.4366 507.7144)" style="fill:#333333;" width="167.042" height="15.999"/>
	
		<rect x="174.267" y="336.001" transform="matrix(-0.9537 0.3009 -0.3009 -0.9537 599.6683 595.6284)" style="fill:#333333;" width="159.392" height="15.991"/>
	
		<rect x="190.939" y="380.015" transform="matrix(-0.9546 0.298 -0.298 -0.9546 619.8893 681.5146)" style="fill:#333333;" width="134.108" height="15.993"/>
	
		<rect x="216.238" y="428.017" transform="matrix(-0.9579 0.2871 -0.2871 -0.9579 630.315 779.6071)" style="fill:#333333;" width="83.52" height="16"/>
</g>
<g>
</g>
<g>
</g>
<g>
</g>
<g>
</g>
<g>
</g>
<g>
</g>
<g>
</g>
<g>
</g>
<g>
</g>
<g>
</g>
<g>
</g>
<g>
</g>
<g>
</g>
<g>
</g>
<g>
</g>
</svg>
