<?xml version="1.0" encoding="iso-8859-1"?>
<!-- Generator: Adobe Illustrator 19.0.0, SVG Export Plug-In . SVG Version: 6.00 Build 0)  -->
<svg xmlns="http://www.w3.org/2000/svg" xmlns:xlink="http://www.w3.org/1999/xlink" version="1.1" id="Layer_1" x="0px" y="0px" viewBox="0 0 496 496" style="enable-background:new 0 0 496 496;" xml:space="preserve">
<g>
	<rect x="168" y="384" style="fill:#333333;" width="112" height="16"/>
	<path style="fill:#333333;" d="M496,24V8h-32V0h-40c-19.312,0-35.472,13.768-39.192,32H40C17.944,32,0,49.944,0,72s17.944,40,40,40   h416c13.232,0,24,10.768,24,24v88c0,13.232-10.768,24-24,24h-40.768c-3.568-24.712-19.504-46.368-42.64-56.88l-126.568-57.536   c-8.168-3.712-16.848-5.584-25.8-5.584c-25.248,0-47.84,15.064-57.544,38.368l-24.032,57.68L120,224v80H88v-24h24v-48H24v48h24v24   h-5.272L16,366.36V416H0v16h456v-16h-8.336c-1.728-39.376-15.952-75.68-39.456-104.56L415,270.712   c0.376-2.208,0.616-4.456,0.784-6.712H456c22.056,0,40-17.944,40-40v-88c0-22.056-17.944-40-40-40H40c-13.232,0-24-10.768-24-24   s10.768-24,24-24h344.808c3.72,18.232,19.872,32,39.192,32h40v-8h32V56h-32V24H496z M177.448,172.52   c7.216-17.328,24.008-28.52,42.776-28.52c6.56,0,13.192,1.44,19.176,4.152l126.56,57.528c20.68,9.4,34.04,30.144,34.04,52.848   c0,3.208-0.264,6.424-0.792,9.544l-4.744,28.472c-9.92-9.68-20.992-18.216-33.088-25.408l1.08-2.16   c4.064-8.136,4.064-17.832,0-25.968c-2.936-5.872-7.832-10.624-13.8-13.376l-81.168-37.464C255.72,186.752,243.184,184,230.232,184   c-11.936,0-22.512,7.168-26.952,18.248l-8.84,22.096l-0.68-0.152l-37.808-0.104L177.448,172.52z M348.144,261.832l-0.888,1.784   c-11.976-5.728-24.68-10.328-38.144-13.368l-98.864-22.328l7.888-19.728c2-4.976,6.736-8.192,12.096-8.192   c10.616,0,20.896,2.256,30.544,6.712l81.168,37.464c2.672,1.232,4.864,3.36,6.184,6   C349.968,253.824,349.968,258.176,348.144,261.832z M296,416H152v-40c0-4.416,3.584-8,8-8h128c4.416,0,8,3.584,8,8V416z M288,352   H160c-13.232,0-24,10.768-24,24v40h-24v-60.368l58.12-50.856l129.008,32.248c32.824,8.208,58.312,34.944,64.944,68.12L366.24,416   H312v-40C312,362.768,301.232,352,288,352z M40,264v-16h56v16h-8H48H40z M64,280h8v24h-8V280z M32,369.64L53.272,320H88h32v7.368   l-24,21V416H32V369.64z M382.56,416l-2.8-14c-7.832-39.192-37.968-70.8-76.76-80.496l-137.12-34.28L136,313.368V240h55.112   l114.472,25.848C377.392,282.064,428.16,343.192,431.664,416H382.56z M448,64h-24c-13.232,0-24-10.768-24-24s10.768-24,24-24h24V64   z"/>
</g>
<rect y="448" style="fill:#F9BA48;" width="496" height="48"/>
<g>
</g>
<g>
</g>
<g>
</g>
<g>
</g>
<g>
</g>
<g>
</g>
<g>
</g>
<g>
</g>
<g>
</g>
<g>
</g>
<g>
</g>
<g>
</g>
<g>
</g>
<g>
</g>
<g>
</g>
</svg>
