<?xml version="1.0" encoding="iso-8859-1"?>
<!-- Generator: Adobe Illustrator 19.0.0, SVG Export Plug-In . SVG Version: 6.00 Build 0)  -->
<svg xmlns="http://www.w3.org/2000/svg" xmlns:xlink="http://www.w3.org/1999/xlink" version="1.1" id="Layer_1" x="0px" y="0px" viewBox="0 0 496.003 496.003" style="enable-background:new 0 0 496.003 496.003;" xml:space="preserve">
<circle style="fill:#F9BA48;" cx="352" cy="232.001" r="88"/>
<g>
	<path style="fill:#333333;" d="M476.08,304.769c13.296-22.704,20.416-48.808,19.896-75.616c-0.48-24.928-8.08-48.544-20.688-69.128   l10.088-10.088c6.848-6.848,10.624-15.96,10.624-25.656c0-20.008-16.272-36.28-36.28-36.28c-7.112,0-13.896,2.072-19.72,5.856   V78.833c0-12.2-6.784-23.168-17.688-28.624L333.968,6.041c-7.912-3.952-16.76-6.04-25.584-6.04   c-15.064,0-29.808,6.112-40.456,16.76l-3.168,3.168C254.112,30.577,248,45.321,248,60.385v27.616H0v71.288l198.224,18.448   c4.648,0.432,8.696,2.752,11.392,6.536c2.784,3.912,3.704,8.88,2.528,13.64c-4.864,19.688-5.464,39.968-1.76,60.272   c3.056,16.8,9.104,32.504,17.432,46.672l-9.2,9.2c-6.84,6.856-10.616,15.968-10.616,25.664c0,20.008,16.272,36.28,36.28,36.28   c9.696,0,18.808-3.776,25.656-10.624l9.216-9.216c17.704,10.408,37.712,17.208,59.04,19.2c1.936,0.176,3.872,0.168,5.808,0.272   v56.368c0,26.472-21.528,48-48,48h-88c-26.472,0-48-21.528-48-48v-160c0-35.288-28.712-64-64-64s-64,28.712-64,64v104.808   c-18.232,3.72-32,19.88-32,39.192v56h8v24h16v-24h32v24h16v-24h8v-56c0-19.312-13.768-35.472-32-39.192V272.001   c0-26.472,21.528-48,48-48s48,21.528,48,48v160c0,35.288,28.712,64,64,64h88c35.288,0,64-28.712,64-64v-56.408   c22.92-1.32,45.104-8.016,64.768-19.52l9.296,9.296c6.848,6.856,15.96,10.632,25.656,10.632c20.008,0,36.28-16.272,36.28-36.28   c0-9.696-3.776-18.808-10.624-25.656L476.08,304.769z M64,416.001v40H16v-40c0-13.232,10.768-24,24-24S64,402.769,64,416.001z    M459.72,104.001c11.176,0,20.28,9.104,20.28,20.28c0,5.424-2.112,10.512-5.936,14.344l-8.048,8.048   c-8.288-10.696-18.016-20.288-28.904-28.472l8.264-8.264C449.2,106.113,454.296,104.001,459.72,104.001z M264,60.385   c0-10.848,4.4-21.472,12.072-29.144l3.168-3.168c12.168-12.168,32.168-15.408,47.568-7.72l88.344,44.168   c5.456,2.728,8.848,8.216,8.848,14.312v29.848l-0.448,0.448c-10.336-6.168-21.376-11.248-33.032-14.8   c-2.752-8.816-9.216-16.192-18.016-19.96l-38.792-16.632c-2.704-1.152-5.568-1.736-8.52-1.736h-7.536   c-5.784,0-11.216,2.248-15.312,6.344S296,71.873,296,77.657v10.344h-32V60.385z M366.552,89.289c-5.968-0.76-12-1.288-18.128-1.288   H312V77.657c0-1.504,0.584-2.928,1.656-4s2.496-1.656,4-1.656h7.536c0.776,0,1.528,0.16,2.232,0.456l38.784,16.624   C366.336,89.137,366.432,89.233,366.552,89.289z M16,104.001h144v54.104L16,144.713V104.001z M258.624,354.065   c-3.824,3.824-8.92,5.936-14.344,5.936c-11.176,0-20.28-9.104-20.28-20.28c0-5.424,2.112-10.512,5.936-14.344l6.944-6.944   c8.176,10.872,17.824,20.536,28.68,28.696L258.624,354.065z M226.128,255.329c-3.288-18.08-2.768-36.104,1.552-53.576   c2.288-9.288,0.464-19.04-5.024-26.752c-5.36-7.528-13.728-12.344-22.944-13.2L176,159.593v-55.592h172.424   c69.992,0,130.24,57.456,131.552,125.464c0.704,36.44-14.192,71.552-40.88,96.344c-27.056,25.136-62.336,37.096-99.416,33.616   C283.008,354.145,236.312,311.337,226.128,255.329z M459.72,360.001c-5.424,0-10.512-2.112-14.344-5.936l-6.96-6.96   c3.992-2.992,7.88-6.16,11.568-9.584c6.328-5.88,11.928-12.376,17.04-19.192l7.04,7.04c3.824,3.832,5.936,8.928,5.936,14.352   C480,350.897,470.896,360.001,459.72,360.001z"/>
	<path style="fill:#333333;" d="M392,232.001c0-22.056-17.944-40-40-40s-40,17.944-40,40s17.944,40,40,40S392,254.057,392,232.001z    M352,256.001c-13.232,0-24-10.768-24-24s10.768-24,24-24s24,10.768,24,24S365.232,256.001,352,256.001z"/>
</g>
<g>
</g>
<g>
</g>
<g>
</g>
<g>
</g>
<g>
</g>
<g>
</g>
<g>
</g>
<g>
</g>
<g>
</g>
<g>
</g>
<g>
</g>
<g>
</g>
<g>
</g>
<g>
</g>
<g>
</g>
</svg>
