<?xml version="1.0" encoding="iso-8859-1"?>
<!-- Generator: Adobe Illustrator 19.0.0, SVG Export Plug-In . SVG Version: 6.00 Build 0)  -->
<svg xmlns="http://www.w3.org/2000/svg" xmlns:xlink="http://www.w3.org/1999/xlink" version="1.1" id="Layer_1" x="0px" y="0px" viewBox="0 0 496 496" style="enable-background:new 0 0 496 496;" xml:space="preserve">
<rect x="48" y="112" style="fill:#F9BA48;" width="144" height="336"/>
<g>
	<path style="fill:#333333;" d="M432,140V80h-40V40c0-22.056-17.944-40-40-40H200c-22.056,0-40,17.944-40,40v432h16V40   c0-13.232,10.768-24,24-24h152c13.232,0,24,10.768,24,24v40h-40v60l-64,48v142.48l112,163.688L496,330.48V188L432,140z M416,96v40   h-64V96H416z M346.664,152h74.664L464,184H304L346.664,152z M288,320V200h192v120H288z M295.168,336h177.664L384,465.832   L295.168,336z"/>
	<rect x="304" y="216" style="fill:#333333;" width="128" height="16"/>
	<rect x="448" y="216" style="fill:#333333;" width="16" height="16"/>
	<path style="fill:#333333;" d="M0,496h56V64H0V496z M16,80h24v400H16V80z"/>
	<path style="fill:#333333;" d="M184,496h56V64h-56V496z M200,80h24v400h-24V80z"/>
	<rect x="136" y="88" style="fill:#333333;" width="16" height="384"/>
	<rect x="112" y="88" style="fill:#333333;" width="16" height="384"/>
	<rect x="88" y="88" style="fill:#333333;" width="16" height="384"/>
	<rect x="64" y="88" style="fill:#333333;" width="16" height="384"/>
</g>
<g>
</g>
<g>
</g>
<g>
</g>
<g>
</g>
<g>
</g>
<g>
</g>
<g>
</g>
<g>
</g>
<g>
</g>
<g>
</g>
<g>
</g>
<g>
</g>
<g>
</g>
<g>
</g>
<g>
</g>
</svg>
