<?xml version="1.0" encoding="iso-8859-1"?>
<!-- Generator: Adobe Illustrator 19.0.0, SVG Export Plug-In . SVG Version: 6.00 Build 0)  -->
<svg xmlns="http://www.w3.org/2000/svg" xmlns:xlink="http://www.w3.org/1999/xlink" version="1.1" id="Layer_1" x="0px" y="0px" viewBox="0 0 496 496" style="enable-background:new 0 0 496 496;" xml:space="preserve">
<path style="fill:#F9BA48;" d="M285.768,0H210.24L176,102.704v72.36l72,9l72-9v-72.36L285.768,0z M248,64c-8.84,0-16-7.16-16-16  s7.16-16,16-16s16,7.16,16,16S256.84,64,248,64z"/>
<path style="fill:#333333;" d="M330.208,209.104L344,195.312V160h-24.488c-3.704-33.32-30.192-59.856-63.512-63.552v-25.92  c9.288-3.312,16-12.112,16-22.528s-6.712-19.216-16-22.528V0h-16v25.472c-9.288,3.312-16,12.112-16,22.528s6.712,19.216,16,22.528  V112h8c28.52,0,52.08,21.448,55.52,49.056l-55.496,6.888l-63.032-7.88L152,160v35.312l13.792,13.792  C153.136,229.424,112,301.24,112,376c0,44.232,6.312,77.96,11.608,98.464c3.28,12.68,14.672,21.536,27.72,21.536h20.08  c15.76,0,28.592-12.832,28.592-28.592c0-3-0.472-5.968-1.4-8.832C195.168,448.056,184,409.28,184,352  c0-53.896,47.376-112.968,64-132.04c16.624,19.056,64,78.072,64,132.04c0,57.28-11.168,96.056-14.6,106.576  c-0.928,2.864-1.4,5.832-1.4,8.832c0,15.76,12.832,28.592,28.592,28.592h20.08c13.048,0,24.44-8.856,27.712-21.536  C377.688,453.96,384,420.232,384,376C384,301.24,342.864,229.424,330.208,209.104z M248,40c4.416,0,8,3.584,8,8s-3.584,8-8,8  s-8-3.584-8-8S243.584,40,248,40z M168,176h15.496L240,183.064v21.784c-5.784,6.304-21.44,24.16-36.68,47.872l-34.264-17.128  c7.672-14.24,13.4-22.856,13.576-23.112l3.688-5.472L168,188.688V176z M183.384,463.512c0.416,1.288,0.616,2.56,0.616,3.896  c0,6.944-5.648,12.592-12.592,12.592h-20.08c-5.752,0-10.776-3.92-12.224-9.536C134.04,450.856,128,418.552,128,376  c0-47.432,18.312-94.736,33.736-126.184l33.24,16.624C180.36,291.952,168,322.248,168,352  C168,411.64,179.776,452.44,183.384,463.512z M256,183.064L312.496,176H328v12.688l-18.32,18.32l3.688,5.472  c0.176,0.256,5.912,8.864,13.592,23.104l-34.272,17.136c-15.24-23.712-30.896-41.568-36.68-47.872v-21.784H256z M356.888,470.464  c-1.44,5.616-6.464,9.536-12.216,9.536h-20.08c-6.944,0-12.592-5.648-12.592-12.592c0-1.336,0.2-2.608,0.616-3.88  C316.224,452.44,328,411.64,328,352c0-29.752-12.36-60.048-26.984-85.56l33.256-16.632C349.696,281.232,368,328.512,368,376  C368,418.552,361.96,450.856,356.888,470.464z"/>
<g>
</g>
<g>
</g>
<g>
</g>
<g>
</g>
<g>
</g>
<g>
</g>
<g>
</g>
<g>
</g>
<g>
</g>
<g>
</g>
<g>
</g>
<g>
</g>
<g>
</g>
<g>
</g>
<g>
</g>
</svg>
