<?xml version="1.0" encoding="iso-8859-1"?>
<!-- Generator: Adobe Illustrator 19.0.0, SVG Export Plug-In . SVG Version: 6.00 Build 0)  -->
<svg xmlns="http://www.w3.org/2000/svg" xmlns:xlink="http://www.w3.org/1999/xlink" version="1.1" id="Layer_1" x="0px" y="0px" viewBox="0 0 495.992 495.992" style="enable-background:new 0 0 495.992 495.992;" xml:space="preserve">
<g>
	<polygon style="fill:#F9BA48;" points="128,159.996 128,7.996 48,7.996 48,159.996 80,151.996  "/>
	<path style="fill:#F9BA48;" d="M128,487.996H48v-288l40,32h40V487.996z"/>
</g>
<g>
	<path style="fill:#333333;" d="M479.656,331.588l-171.528-75.472c-12.24-5.392-25.232-8.128-38.6-8.128   c-14.712,0-28.84,5.792-39.32,16H208v-0.496c0-19.952,14.912-36.992,34.688-39.64l219.872-29.448   c14.496-1.944,25.44-14.448,25.44-29.08c0-16.176-13.16-29.336-29.336-29.336c-12.768,0-25.656,0.96-38.312,2.856l-140.944,21.144   h-38.44c-8.816,0-17.096-3.432-23.312-9.656c-9.248-9.248-21.544-14.344-34.624-14.344H168c-14.632,0-27.92,5.688-37.912,14.904   l-40.776-6.8L72,143.996c-26.472,0-48,21.528-48,48v4.12l61.44,43.88H112v0.024h16v-0.024v-16v-32c0-22.056,17.944-40,40-40h15.032   c8.68,0,17.168,3.52,23.312,9.656c9.24,9.248,21.536,14.344,34.624,14.344H280l142.728-21.312   c11.872-1.784,23.968-2.688,35.936-2.688c7.352,0,13.336,5.984,13.336,13.336c0,6.648-4.968,12.336-11.56,13.216l-219.88,29.448   C212.872,211.7,192,235.556,192,263.5v0.496h-16c-17.648,0-32,14.352-32,32c0,5.856,1.696,11.272,4.448,16H128v16h48h24h92.256   l149.184,51.448c8.768,3.024,17.912,4.552,27.656,4.552c14.832,0,26.896-12.072,26.896-27.28   C496,345.828,489.584,335.956,479.656,331.588z M112,191.996v32H90.56l-50.32-35.944c1.952-15.792,15.448-28.056,31.76-28.056   h15.336l31.488,5.248C114.472,173.196,112,182.316,112,191.996z M468.632,367.996c-7.504,0-14.888-1.232-21.968-3.68l-151.72-52.32   H200h-24c-8.824,0-16-7.176-16-16s7.176-16,16-16h61.168l2.384-2.648c7.64-8.488,18.56-13.352,29.976-13.352   c11.136,0,21.952,2.272,32.168,6.768l171.52,75.472c4.12,1.816,6.784,5.928,6.784,10.864   C480,363.108,475.112,367.996,468.632,367.996z"/>
	<path style="fill:#333333;" d="M192,191.996c0-13.232-10.768-24-24-24s-24,10.768-24,24s10.768,24,24,24S192,205.228,192,191.996z    M160,191.996c0-4.416,3.584-8,8-8s8,3.584,8,8s-3.584,8-8,8S160,196.412,160,191.996z"/>
	<path style="fill:#333333;" d="M48,299.708c-19.72-13.208-32-35.36-32-59.712v-8h17.832c2.816,8.672,7.736,16.504,14.168,22.96   v-31.992c-0.04-0.184-0.12-0.352-0.16-0.536l-1.288-6.432H0v24c0,33.32,18.648,63.432,48,78.4V299.708z"/>
</g>
<g>
</g>
<g>
</g>
<g>
</g>
<g>
</g>
<g>
</g>
<g>
</g>
<g>
</g>
<g>
</g>
<g>
</g>
<g>
</g>
<g>
</g>
<g>
</g>
<g>
</g>
<g>
</g>
<g>
</g>
</svg>
