<?xml version="1.0" encoding="iso-8859-1"?>
<!-- Generator: Adobe Illustrator 19.0.0, SVG Export Plug-In . SVG Version: 6.00 Build 0)  -->
<svg xmlns="http://www.w3.org/2000/svg" xmlns:xlink="http://www.w3.org/1999/xlink" version="1.1" id="Layer_1" x="0px" y="0px" viewBox="0 0 496 496" style="enable-background:new 0 0 496 496;" xml:space="preserve">
<path style="fill:#F9BA48;" d="M392,96v48H104V56H84c-11.048,0-20,8.952-20,20v296c0,11.048,8.952,20,20,20s20-8.952,20-20v-60  c0-8.84,7.16-16,16-16s16,7.16,16,16v4c0,11.048,8.952,20,20,20s20-8.952,20-20v-28c0-8.84,7.16-16,16-16h24v-16h64v24l-16,8v8  l2.736,1.368c8.128,4.064,13.264,12.376,13.264,21.464V328h16c8.84,0,16,7.16,16,16v28c0,11.048,8.952,20,20,20s20-8.952,20-20v-56  c0-11.048,8.952-20,20-20s20,8.952,20,20v32c0,11.048,8.952,20,20,20s20-8.952,20-20V168V96H392z"/>
<g>
	<path style="fill:#333333;" d="M400,104h24v65.552l-184,40V248h-32v36.944l14.368,7.176C213.424,298.008,208,307.928,208,318.832   V416c0,22.056,17.944,40,40,40s40-17.944,40-40v-97.168c0-10.904-5.416-20.832-14.368-26.712L288,284.944V248h-32v-25.552l184-40   V88h-40V40H96v112h304V104z M272,275.056l-16,8v17.888l7.16,3.576c5.448,2.728,8.84,8.216,8.84,14.312V416   c0,13.232-10.768,24-24,24s-24-10.768-24-24v-97.168c0-6.104,3.392-11.584,8.84-14.312l7.16-3.576v-17.888l-16-8V264h48V275.056z    M384,136H112V56h272V136z"/>
	<path style="fill:#333333;" d="M24,0v496h448V0H24z M456,480H40V16h416V480z"/>
</g>
<g>
</g>
<g>
</g>
<g>
</g>
<g>
</g>
<g>
</g>
<g>
</g>
<g>
</g>
<g>
</g>
<g>
</g>
<g>
</g>
<g>
</g>
<g>
</g>
<g>
</g>
<g>
</g>
<g>
</g>
</svg>
