<?xml version="1.0" encoding="iso-8859-1"?>
<!-- Generator: Adobe Illustrator 19.0.0, SVG Export Plug-In . SVG Version: 6.00 Build 0)  -->
<svg xmlns="http://www.w3.org/2000/svg" xmlns:xlink="http://www.w3.org/1999/xlink" version="1.1" id="Layer_1" x="0px" y="0px" viewBox="0 0 496 496" style="enable-background:new 0 0 496 496;" xml:space="preserve">
<path style="fill:#F9BA48;" d="M471.998,496c-13.232,0-24-10.768-24-24v-48c0-4.416-3.584-8-8-8s-8,3.584-8,8v8  c0,13.232-10.768,24-24,24s-24-10.768-24-24v-60c0-2.2-1.8-4-4-4c-11.032,0-20-8.968-20-20V0h136v472  C495.998,485.24,485.23,496,471.998,496z"/>
<g>
	<circle style="fill:#333333;" cx="55.998" cy="104" r="8"/>
	<rect x="439.998" y="40" style="fill:#333333;" width="16" height="280"/>
	<rect x="439.998" y="336" style="fill:#333333;" width="16" height="16"/>
	<rect x="399.998" y="40" style="fill:#333333;" width="16" height="240"/>
	<rect x="399.998" y="296" style="fill:#333333;" width="16" height="16"/>
	<path style="fill:#333333;" d="M359.998,192h-72V16h72V0h-72h-16h-12.28l-28.152,42.224C219.134,60.864,198.334,72,175.934,72   c-4.76,0-9.52-0.472-14.152-1.4l-7.744-1.544c-37.568-7.52-76.896-6.592-114.104,2.72l-17.296,4.328   C11.19,78.952,2.494,87.832,0.486,98.696C-2.266,113.528,6.99,128,21.574,131.64l18.368,4.592   c37.176,9.304,76.592,10.232,114.104,2.72l7.744-1.544c4.656-0.928,9.416-1.408,14.152-1.408c22.4,0,43.192,11.136,55.632,29.776   L259.726,208h12.272h16h72V192z M271.998,192h-3.72l-23.4-35.104C229.462,133.784,203.694,120,175.934,120   c-5.792,0-11.608,0.576-17.288,1.72l-7.744,1.544c-35.192,7.04-72.184,6.168-107.08-2.544l-18.368-4.592   c-6.392-1.6-10.456-7.968-9.232-14.512c0.856-4.648,4.992-8.664,10.288-9.992l17.304-4.328c34.936-8.72,71.832-9.6,107.088-2.544   l7.744,1.544c5.656,1.136,11.48,1.712,17.288,1.712c27.768,0,53.536-13.8,68.944-36.896l23.4-35.104h3.72V192z"/>
</g>
<g>
</g>
<g>
</g>
<g>
</g>
<g>
</g>
<g>
</g>
<g>
</g>
<g>
</g>
<g>
</g>
<g>
</g>
<g>
</g>
<g>
</g>
<g>
</g>
<g>
</g>
<g>
</g>
<g>
</g>
</svg>
