<?xml version="1.0" encoding="iso-8859-1"?>
<!-- Generator: Adobe Illustrator 19.0.0, SVG Export Plug-In . SVG Version: 6.00 Build 0)  -->
<svg xmlns="http://www.w3.org/2000/svg" xmlns:xlink="http://www.w3.org/1999/xlink" version="1.1" id="Layer_1" x="0px" y="0px" viewBox="0 0 496 496" style="enable-background:new 0 0 496 496;" xml:space="preserve">
<g>
	<rect x="208" y="448" style="fill:#F9BA48;" width="64" height="40"/>
	<rect x="208" y="128" style="fill:#F9BA48;" width="64" height="160"/>
</g>
<g>
	<polygon style="fill:#333333;" points="64,40 16,40 16,0 0,0 0,496 16,496 16,56 64,56 64,64 80,64 80,32 64,32  "/>
	<path style="fill:#333333;" d="M171.312,88h9.376l8,8h4.76l8,40h77.112l8-40h7.72c10.144,0,20.104,2.76,28.808,7.984l60.792,36.472   c3.88,2.32,8.32,3.544,12.832,3.544h2.328c13.768,0,24.968-11.2,24.968-24.968c0-6.656-2.592-12.928-7.304-17.648l-50.232-50.232   C343.8,28.488,313.664,16,281.624,16h-92.936l-8,8h-9.376l-8-8H104v80h59.312L171.312,88z M120,80V32h36.688l8,8h22.624l8-8h86.296   c27.776,0,53.888,10.824,73.536,30.464l50.216,50.216c1.704,1.704,2.64,3.96,2.64,6.352c0,4.944-4.024,8.968-8.968,8.968h-2.328   c-1.624,0-3.224-0.448-4.616-1.272l-60.776-36.464c-11.184-6.72-24-10.264-37.04-10.264H273.44l-8,40h-50.888l-8-40h-11.24l-8-8   h-22.624l-8,8C156.688,80,120,80,120,80z"/>
	<rect x="200" y="48" style="fill:#333333;" width="56" height="16"/>
	<rect x="272" y="48" style="fill:#333333;" width="16" height="16"/>
	<path style="fill:#333333;" d="M360,416c0,13.232-10.768,24-24,24h-58.808c1.752-3.648,2.808-7.688,2.808-12   c0-7.84-3.256-14.912-8.464-20c5.208-5.088,8.464-12.16,8.464-20s-3.256-14.912-8.464-20c5.208-5.088,8.464-12.16,8.464-20   s-3.256-14.912-8.464-20c5.208-5.088,8.464-12.16,8.464-20c0-4.312-1.064-8.352-2.808-12h22.12L272,268.688v11.336h-24V280h-8h-52   c-15.44,0-28,12.56-28,28c0,7.84,3.256,14.912,8.464,20c-5.208,5.088-8.464,12.16-8.464,20s3.256,14.912,8.464,20   c-5.208,5.088-8.464,12.16-8.464,20s3.256,14.912,8.464,20c-5.208,5.088-8.464,12.16-8.464,20c0,15.44,12.56,28,28,28h60h4h84   c19.32,0,35.48-13.768,39.192-32H496v-16H360V416z M252,440h-4h-60c-6.616,0-12-5.384-12-12s5.384-12,12-12h64   c6.616,0,12,5.384,12,12S258.616,440,252,440z M252,400h-64c-6.616,0-12-5.384-12-12s5.384-12,12-12h64c6.616,0,12,5.384,12,12   S258.616,400,252,400z M252,360h-64c-6.616,0-12-5.384-12-12s5.384-12,12-12h64c6.616,0,12,5.384,12,12S258.616,360,252,360z    M252,320h-64c-6.616,0-12-5.384-12-12s5.384-12,12-12h52h12c6.616,0,12,5.384,12,12S258.616,320,252,320z"/>
	<path style="fill:#333333;" d="M363.312,280l-77.376-77.368c-3.92-3.92-8.68-6.76-13.936-8.52v17.64   c0.936,0.648,1.816,1.384,2.624,2.192L356.688,296H496v-16H363.312z"/>
</g>
<g>
</g>
<g>
</g>
<g>
</g>
<g>
</g>
<g>
</g>
<g>
</g>
<g>
</g>
<g>
</g>
<g>
</g>
<g>
</g>
<g>
</g>
<g>
</g>
<g>
</g>
<g>
</g>
<g>
</g>
</svg>
