<?xml version="1.0" encoding="iso-8859-1"?>
<!-- Generator: Adobe Illustrator 19.0.0, SVG Export Plug-In . SVG Version: 6.00 Build 0)  -->
<svg xmlns="http://www.w3.org/2000/svg" xmlns:xlink="http://www.w3.org/1999/xlink" version="1.1" id="Layer_1" x="0px" y="0px" viewBox="0 0 496 496" style="enable-background:new 0 0 496 496;" xml:space="preserve">
<path style="fill:#F9BA48;" d="M280,54.828L280,54.828c-35.056,0-67.864,17.256-87.728,46.144L136,182.828h288l-56.272-81.856  C347.864,72.084,315.056,54.828,280,54.828z"/>
<g>
	<path style="fill:#333333;" d="M424,350.828c-15.856,0-30.48,5.208-42.384,13.928l-27.432-29.928h35.288l56-144H472v-16H111.912   l-26.88-56H0v16h74.968l96,200h18.544l-26.064,94.912c-2.288,8.312-3.448,16.912-3.448,25.528c0,21.808,17.752,39.56,39.56,39.56   c12.896,0,25.016-6.304,32.416-16.872l100.192-143.128h0.32l37.336,40.728C358.76,388.22,352,404.732,352,422.828   c0,39.704,32.296,72,72,72s72-32.296,72-72S463.704,350.828,424,350.828z M119.592,190.828h308.72l-49.776,128H339.52H320H181.032   L119.592,190.828z M218.864,468.78c-4.4,6.288-11.616,10.048-19.304,10.048c-12.992,0-23.56-10.568-23.56-23.56   c0-7.184,0.968-14.352,2.864-21.288l27.232-99.152H312.64L218.864,468.78z M424,478.828c-30.872,0-56-25.128-56-56   c0-13.432,4.76-25.768,12.672-35.424l16.528,18.032c-3.264,5.016-5.2,10.976-5.2,17.392c0,17.648,14.352,32,32,32s32-14.352,32-32   s-14.352-32-32-32c-5.424,0-10.456,1.48-14.936,3.872l-16.6-18.104c8.992-6.16,19.848-9.768,31.536-9.768c30.872,0,56,25.128,56,56   S454.872,478.828,424,478.828z M418.104,428.236l11.8-10.816l-9.344-10.2c1.104-0.24,2.256-0.392,3.44-0.392   c8.824,0,16,7.176,16,16s-7.176,16-16,16s-16-7.176-16-16c0-1.664,0.328-3.232,0.8-4.744L418.104,428.236z"/>
	<rect x="160" y="206.828" style="fill:#333333;" width="16" height="16"/>
	<rect x="192" y="206.828" style="fill:#333333;" width="192" height="16"/>
	<path style="fill:#333333;" d="M367.032,115.108l36.28-36.28l-20-20l46.344-46.344L418.344,1.172L372,47.516l-20-20l-36.28,36.28   c-7.552,7.552-11.72,17.6-11.72,28.288v34.744h34.744C349.432,126.828,359.48,122.66,367.032,115.108z M320,92.084   c0-6.416,2.496-12.448,7.032-16.976L352,50.14l28.688,28.688l-24.968,24.968c-4.536,4.536-10.56,7.032-16.976,7.032H320V92.084z"/>
</g>
<g>
</g>
<g>
</g>
<g>
</g>
<g>
</g>
<g>
</g>
<g>
</g>
<g>
</g>
<g>
</g>
<g>
</g>
<g>
</g>
<g>
</g>
<g>
</g>
<g>
</g>
<g>
</g>
<g>
</g>
</svg>
