<?xml version="1.0" encoding="iso-8859-1"?>
<!-- Generator: Adobe Illustrator 19.0.0, SVG Export Plug-In . SVG Version: 6.00 Build 0)  -->
<svg xmlns="http://www.w3.org/2000/svg" xmlns:xlink="http://www.w3.org/1999/xlink" version="1.1" id="Layer_1" x="0px" y="0px" viewBox="0 0 496 496" style="enable-background:new 0 0 496 496;" xml:space="preserve">
<g>
	<rect x="272" y="192" style="fill:#F9BA48;" width="16" height="176"/>
	<rect x="240" y="192" style="fill:#F9BA48;" width="16" height="176"/>
	<path style="fill:#F9BA48;" d="M131.312,176H12.688L0,163.312v-38.624L12.688,112h118.624L144,124.688v38.624L131.312,176z"/>
</g>
<g>
	<path style="fill:#333333;" d="M480,24V0h-16v24h-32V0h-16v24h-16v40c0,23.736,17.336,43.448,40,47.28V452c0,15.44-12.56,28-28,28   s-28-12.56-28-28V44c0-24.256-19.744-44-44-44h-40c-24.256,0-44,19.744-44,44v4h-32c-13.232,0-24,10.768-24,24v41.136   c-13.768,3.576-24,15.992-24,30.864v56c0,8.824,7.176,16,16,16h16v136c0,10.416,6.712,19.216,16,22.528V408h8v32h24v56h16v-56h24   v-32h8v-33.472c9.288-3.312,16-12.112,16-22.528V176.984l7.76-31.048L328,72c0-13.232-10.768-24-24-24h-32v-4   c0-15.44,12.56-28,28-28h40c15.44,0,28,12.56,28,28v408c0,24.256,19.744,44,44,44s44-19.744,44-44V111.28   c22.664-3.824,40-23.536,40-47.28V24H480z M192,200v-56c0-5.896,3.24-11,8-13.776V144l8,32.984V200H192z M288,392h-48v-16h48V392z    M280,424h-32v-16h32V424z M312,72v71.016l-7.76,31.048L304,352c0,4.416-3.584,8-8,8h-64c-4.416,0-8-3.584-8-8V176l-8-32.984V72   c0-4.416,3.584-8,8-8h80C308.416,64,312,67.584,312,72z M480,64c0,17.648-14.352,32-32,32s-32-14.352-32-32V40h64V64z"/>
	<path style="fill:#333333;" d="M80,256H0v240h80v-32h24v-16H80v-16h40v-16H80v-16h56v-16H80v-16h72v-16H80v-16h88v-16H80v-16h104   v-16H80V256z M64,320H32v16h32v16H32v16h32v16H32v16h32v16H32v16h32v16H32v16h32v16H16V272h48v16H32v16h32V320z"/>
	<path style="fill:#333333;" d="M32,144v16v16v32h80v-32v-16v-16H96v16H80v-16H64v16H48v-16H32z M64,176h16h16v16H48v-16H64z"/>
	<polygon style="fill:#333333;" points="40,112 40,92.28 58.424,80 85.576,80 104,92.28 104,112 120,112 120,83.72 90.424,64 80,64    80,0 64,0 64,64 53.576,64 24,83.72 24,112  "/>
</g>
<g>
</g>
<g>
</g>
<g>
</g>
<g>
</g>
<g>
</g>
<g>
</g>
<g>
</g>
<g>
</g>
<g>
</g>
<g>
</g>
<g>
</g>
<g>
</g>
<g>
</g>
<g>
</g>
<g>
</g>
</svg>
