<?xml version="1.0" encoding="iso-8859-1"?>
<!-- Generator: Adobe Illustrator 19.0.0, SVG Export Plug-In . SVG Version: 6.00 Build 0)  -->
<svg xmlns="http://www.w3.org/2000/svg" xmlns:xlink="http://www.w3.org/1999/xlink" version="1.1" id="Layer_1" x="0px" y="0px" viewBox="0 0 496 496" style="enable-background:new 0 0 496 496;" xml:space="preserve">
<g>
	<path style="fill:#333333;" d="M352,160v-34.328c0-11.88-8.52-21.848-20.256-23.704L193.248,80.104L144,80   c-17.648,0-32,14.352-32,32v40c0,17.648,14.352,32,32,32h184C341.232,184,352,173.232,352,160z M336,160c0,4.416-3.584,8-8,8H144   c-8.824,0-16-7.176-16-16v-40c0-8.824,7.176-16,16-16h47.376l137.864,21.768l0.008,0.008c3.912,0.608,6.752,3.936,6.752,7.896V160z   "/>
	<rect x="120" y="216" style="fill:#333333;" width="16" height="80"/>
	<rect x="152" y="216" style="fill:#333333;" width="16" height="80"/>
	<path style="fill:#333333;" d="M472,240l-56,6.952V128.376c0-50.456-36.048-93.504-85.72-102.384L199.36,2.616   C189.632,0.88,179.696,0,169.832,0H104C64.296,0,32,32.296,32,72v272h16v8H0v16h48v128h16v-8h8v-16h-8v-8h8v-16h-8v-8h8v-16h-8v-8   h8v-16h-8v-8h8v-16h-8v-8h264v-16H64v-8h328c10.104,0,18.728-6.296,22.264-15.152l56.744,7.096L472,336c13.232,0,24-10.768,24-24   v-48C496,250.768,485.232,240,472,240z M72,328H48v-80h24V328z M392,328H88v-96H48V72c0-30.872,25.128-56,56-56h65.832   c8.92,0,17.912,0.8,26.72,2.368l130.92,23.376C369.496,49.248,400,85.688,400,128.376V200h-64v16h64v16h-64v16h64v0.936V264h-64v16   h64v16h-64v16h64v8C400,324.416,396.416,328,392,328z M480,312c0,4.272-3.368,7.776-7.584,7.992L416,312.936v-49.872l56.416-7.056   c4.216,0.216,7.584,3.72,7.584,7.992V312z"/>
	<path style="fill:#333333;" d="M128,48c0-13.232-10.768-24-24-24S80,34.768,80,48s10.768,24,24,24S128,61.232,128,48z M104,56   c-4.416,0-8-3.584-8-8s3.584-8,8-8s8,3.584,8,8S108.416,56,104,56z"/>
</g>
<path style="fill:#F9BA48;" d="M296,296h-88c-8.84,0-16-7.16-16-16v-48c0-8.84,7.16-16,16-16h88c8.84,0,16,7.16,16,16v48  C312,288.84,304.84,296,296,296z"/>
<g>
</g>
<g>
</g>
<g>
</g>
<g>
</g>
<g>
</g>
<g>
</g>
<g>
</g>
<g>
</g>
<g>
</g>
<g>
</g>
<g>
</g>
<g>
</g>
<g>
</g>
<g>
</g>
<g>
</g>
</svg>
