<?xml version="1.0" encoding="iso-8859-1"?>
<!-- Generator: Adobe Illustrator 19.0.0, SVG Export Plug-In . SVG Version: 6.00 Build 0)  -->
<svg xmlns="http://www.w3.org/2000/svg" xmlns:xlink="http://www.w3.org/1999/xlink" version="1.1" id="Layer_1" x="0px" y="0px" viewBox="0 0 496 496" style="enable-background:new 0 0 496 496;" xml:space="preserve">
<path style="fill:#F9BA48;" d="M456.104,344h-82.528c-12.096,0-23.112-7.152-27.408-17.784c-5.24-12.968-0.848-27.4,10.688-35.072  c7.08-4.712,11.144-11.52,11.144-18.68V184c0-4.408-3.584-8-8-8H253.2c-5.104,0-9.992-1.584-14.112-4.592l-80.504-58.544  c-4.128-3.008-6.584-7.84-6.584-12.936V16c0-8.824,7.152-16,15.944-16h294.288c15.376,0,28.792,9.856,32.6,23.968  c4.192,15.52-3.296,31.656-17.808,38.36C474.016,63.72,472,67.32,472,71.304v44.88c0,17.416,3.536,33.224,10.52,46.992  c8.944,17.6,13.48,35.28,13.48,52.544v88.36C496,326.088,478.104,344,456.104,344z"/>
<g>
	<rect x="240" y="128" style="fill:#333333;" width="32" height="16"/>
	<rect x="240" y="104" style="fill:#333333;" width="32" height="16"/>
	<rect x="240" y="80" style="fill:#333333;" width="32" height="16"/>
	<rect x="240" y="56" style="fill:#333333;" width="32" height="16"/>
	<path style="fill:#333333;" d="M424,304c13.232,0,24-10.768,24-24s-10.768-24-24-24s-24,10.768-24,24S410.768,304,424,304z    M424,272c4.416,0,8,3.584,8,8s-3.584,8-8,8s-8-3.584-8-8S419.584,272,424,272z"/>
	<path style="fill:#333333;" d="M24,320h160c13.232,0,24-10.768,24-24V192c0-13.232-10.768-24-24-24H24c-13.232,0-24,10.768-24,24   v104C0,309.232,10.768,320,24,320z M16,192c0-4.416,3.584-8,8-8h160c4.416,0,8,3.584,8,8v104c0,4.416-3.584,8-8,8H24   c-4.416,0-8-3.584-8-8V192z"/>
	<polygon style="fill:#333333;" points="48,256 64,256 64,216 72,216 72,200 40,200 40,216 48,216  "/>
	<polygon style="fill:#333333;" points="96,256 112,256 112,216 120,216 120,200 88,200 88,216 96,216  "/>
	<polygon style="fill:#333333;" points="144,256 160,256 160,216 168,216 168,200 136,200 136,216 144,216  "/>
	<rect x="32" y="272" style="fill:#333333;" width="144" height="16"/>
	<path style="fill:#333333;" d="M64,76.28L93.576,96H112v8h48V8h-48v8H93.576L64,35.72V48H0v16h64V76.28z M144,88h-16V24h16V88z    M80,44.28L98.424,32H112v16H96v16h16v16H98.424L80,67.72V44.28z"/>
	<path style="fill:#333333;" d="M432,344.024V376h-16v-31.976h-16V392h16v68c0,11.032-8.968,20-20,20H36c-11.032,0-20-8.968-20-20   s8.968-20,20-20h280c19.848,0,36-16.152,36-36s-16.152-36-36-36H94.864C91.288,354.232,78.872,344,64,344H24v8H0v16h24v16H0v16h24   v8h40c14.872,0,27.288-10.232,30.864-24H316c11.032,0,20,8.968,20,20s-8.968,20-20,20H36c-19.848,0-36,16.152-36,36   s16.152,36,36,36h360c19.848,0,36-16.152,36-36v-68h16v-47.976H432z M64,392H40v-32h24c8.824,0,16,7.176,16,16S72.824,392,64,392z"/>
	<path style="fill:#333333;" d="M344,224c-4.416,0-8-3.584-8-8v-27.312l-12.664-12.664H304v3.288l16,16V216   c0,13.232,10.768,24,24,24h24v-16H344z"/>
</g>
<g>
</g>
<g>
</g>
<g>
</g>
<g>
</g>
<g>
</g>
<g>
</g>
<g>
</g>
<g>
</g>
<g>
</g>
<g>
</g>
<g>
</g>
<g>
</g>
<g>
</g>
<g>
</g>
<g>
</g>
</svg>
