<?xml version="1.0" encoding="iso-8859-1"?>
<!-- Generator: Adobe Illustrator 19.0.0, SVG Export Plug-In . SVG Version: 6.00 Build 0)  -->
<svg xmlns="http://www.w3.org/2000/svg" xmlns:xlink="http://www.w3.org/1999/xlink" version="1.1" id="Layer_1" x="0px" y="0px" viewBox="0 0 496 496" style="enable-background:new 0 0 496 496;" xml:space="preserve">
<path style="fill:#F9BA48;" d="M416,212l-25.8-0.2L287.08,188H128c-8.824,0-16-7.176-16-16v-8H24L0,108l24-40h88  c0-8.824,7.176-16,16-16h288c44.112,0,80,35.888,80,80S460.112,212,416,212z"/>
<g>
	<rect x="304" y="172" style="fill:#333333;" width="16" height="24"/>
	<rect x="336" y="172" style="fill:#333333;" width="16" height="32"/>
	<rect x="368" y="172" style="fill:#333333;" width="16" height="40"/>
	<rect x="400" y="172" style="fill:#333333;" width="16" height="40"/>
	<path style="fill:#333333;" d="M16,124v16h320c0,8.824,7.176,16,16,16h96c8.824,0,16-7.176,16-16v-16c0-26.472-21.528-48-48-48h-64   c-8.824,0-16,7.176-16,16H8v16h328v16H16z M384,140V92h16v48H384z M448,124l0.016,16H416V92C433.648,92,448,106.352,448,124z    M352,92h16v48h-16V92z"/>
	<path style="fill:#333333;" d="M17.056,332H436.28l42.664-64H59.72L17.056,332z M307.72,316h-20.768l21.336-32h20.768L307.72,316z    M348.28,284h20.768l-21.336,32h-20.768L348.28,284z M267.72,316h-20.768l21.336-32h20.768L267.72,316z M227.72,316h-20.768   l21.336-32h20.768L227.72,316z M187.72,316h-20.768l21.336-32h20.768L187.72,316z M147.72,316h-20.768l21.336-32h20.768L147.72,316   z M107.72,316H86.952l21.336-32h20.768L107.72,316z M427.72,316h-60.768l21.336-32h60.776L427.72,316z M89.056,284L67.72,316   H46.944l21.336-32H89.056z"/>
	<circle style="fill:#333333;" cx="408" cy="300" r="8"/>
	<path style="fill:#333333;" d="M17.056,444H436.28l42.664-64H59.72L17.056,444z M307.72,428h-20.768l21.336-32h20.768L307.72,428z    M348.28,396h20.768l-21.336,32h-20.768L348.28,396z M267.72,428h-20.768l21.336-32h20.768L267.72,428z M227.72,428h-20.768   l21.336-32h20.768L227.72,428z M187.72,428h-20.768l21.336-32h20.768L187.72,428z M147.72,428h-20.768l21.336-32h20.768L147.72,428   z M107.72,428H86.952l21.336-32h20.768L107.72,428z M427.72,428h-60.768l21.336-32h60.776L427.72,428z M89.056,396L67.72,428   H46.944l21.336-32H89.056z"/>
	<circle style="fill:#333333;" cx="408" cy="412" r="8"/>
</g>
<g>
</g>
<g>
</g>
<g>
</g>
<g>
</g>
<g>
</g>
<g>
</g>
<g>
</g>
<g>
</g>
<g>
</g>
<g>
</g>
<g>
</g>
<g>
</g>
<g>
</g>
<g>
</g>
<g>
</g>
</svg>
