<?xml version="1.0" encoding="iso-8859-1"?>
<!-- Generator: Adobe Illustrator 19.0.0, SVG Export Plug-In . SVG Version: 6.00 Build 0)  -->
<svg xmlns="http://www.w3.org/2000/svg" xmlns:xlink="http://www.w3.org/1999/xlink" version="1.1" id="Layer_1" x="0px" y="0px" viewBox="0 0 496 496" style="enable-background:new 0 0 496 496;" xml:space="preserve">
<path style="fill:#F9BA48;" d="M248,360c124,0,186.416,9.2,216,16.208V272c0-75.224-39.736-145.52-104-184.6V72  c0-8.824-7.176-16-16-16h-24c-5.928,0-11.12,3.24-13.872,8.048c-6.304-1.8-12.448-3.256-18.52-4.4C285.544,48.488,275.752,40,264,40  h-32c-11.744,0-21.552,8.48-23.608,19.648c-6.072,1.152-12.208,2.608-18.512,4.4C187.112,59.248,181.928,56,176,56h-24  c-8.824,0-16,7.176-16,16v15.4C71.728,126.488,32,196.784,32,272v104.208C61.584,369.2,124,360,248,360z"/>
<g>
	<rect x="160" y="240" style="fill:#333333;" width="16" height="96"/>
	<rect x="160" y="208" style="fill:#333333;" width="16" height="16"/>
	<path style="fill:#333333;" d="M477.832,301.216L464,297.76v16.496l9.944,2.496c3.56,0.872,6.056,4.064,6.056,7.744v47.848   c-15.44-4.888-48.144-12.312-112-16.712V232c0-15.064-2.912-29.432-8-42.728V72c0-8.824-7.176-16-16-16h-24   c-8.824,0-16,7.176-16,16v53.944c-5.112-2.712-10.48-4.984-16-6.944V64c0-13.232-10.768-24-24-24h-32c-13.232,0-24,10.768-24,24v55   c-5.52,1.96-10.888,4.232-16,6.944V72c0-8.824-7.176-16-16-16h-24c-8.824,0-16,7.176-16,16v117.272   c-5.088,13.296-8,27.664-8,42.728v123.632c-63.856,4.4-96.56,11.824-112,16.712v-47.848c0-3.68,2.496-6.864,6.064-7.76L32,314.248   V297.76l-13.824,3.456C7.48,303.88,0,313.456,0,324.496v63.576l57.632,41.92C81.04,447.008,108.696,456,137.624,456h220.752   c28.928,0,56.584-8.992,79.992-26.008L496,388.072v-63.576C496,313.456,488.52,303.88,477.832,301.216z M320,136V72h24v88.304   c-6.904-9.224-15.08-17.4-24.304-24.304H320z M224,64c0-4.416,3.584-8,8-8h32c4.416,0,8,3.584,8,8v50.416   c-7.76-1.584-15.784-2.416-24-2.416s-16.24,0.84-24,2.416V64z M152,72h24v64.224c-9.096,6.856-17.168,14.952-24,24.08V72z M144,232   c0-57.344,46.656-104,104-104s104,46.656,104,104v122.64c-28.752-1.616-63.016-2.64-104-2.64s-75.248,1.024-104,2.64V232z    M428.96,417.056C408.304,432.064,383.896,440,358.376,440H137.624c-25.52,0-49.928-7.936-70.584-22.944l-42.192-30.688   C48.32,379.712,109.368,368,248,368c138.624,0,199.664,11.72,223.144,18.368L428.96,417.056z"/>
</g>
<g>
</g>
<g>
</g>
<g>
</g>
<g>
</g>
<g>
</g>
<g>
</g>
<g>
</g>
<g>
</g>
<g>
</g>
<g>
</g>
<g>
</g>
<g>
</g>
<g>
</g>
<g>
</g>
<g>
</g>
</svg>
