<?xml version="1.0" encoding="iso-8859-1"?>
<!-- Generator: Adobe Illustrator 19.0.0, SVG Export Plug-In . SVG Version: 6.00 Build 0)  -->
<svg xmlns="http://www.w3.org/2000/svg" xmlns:xlink="http://www.w3.org/1999/xlink" version="1.1" id="Layer_1" x="0px" y="0px" viewBox="0 0 496 496" style="enable-background:new 0 0 496 496;" xml:space="preserve">
<path style="fill:#F9BA48;" d="M272,296H144l-40-64v-96c0-39.696,32.304-72,72-72h64c39.704,0,72,32.304,72,72v96L272,296z"/>
<g>
	<path style="fill:#333333;" d="M496,328V100.688L411.312,16H328v52.688L283.312,24H132.688L88,68.688V40H40v128H16V80H0v192h16v-88   h24v166.104C16.448,360.8,0,384.496,0,412c0,37.496,30.504,68,68,68s68-30.504,68-68c0-20.848-9.456-39.512-24.272-52H328.28   C313.456,372.488,304,391.152,304,412c0,37.496,30.504,68,68,68s68-30.504,68-68c0-30.536-20.24-56.424-48-64.992V328H496z M88,152   h240v160H88V152z M397.824,312H392h-8h-40V90.736L397.824,312z M480,107.312V312h-65.712L346.176,32h58.512L480,107.312z    M139.312,40h137.376L328,91.312V136H88V91.312L139.312,40z M120,412c0,28.672-23.328,52-52,52s-52-23.328-52-52s23.328-52,52-52   S120,383.328,120,412z M424,412c0,28.672-23.328,52-52,52s-52-23.328-52-52s23.328-52,52-52S424,383.328,424,412z M56,344V184v-16   V56h16v272h304v16H56z"/>
	<rect x="104" y="216" style="fill:#333333;" width="136" height="16"/>
	<rect x="256" y="216" style="fill:#333333;" width="56" height="16"/>
	<rect x="408" y="128" style="fill:#333333;" width="48" height="16"/>
	<rect x="408" y="160" style="fill:#333333;" width="48" height="16"/>
	<rect x="408" y="192" style="fill:#333333;" width="48" height="16"/>
	<path style="fill:#333333;" d="M68,440c15.44,0,28-12.56,28-28s-12.56-28-28-28s-28,12.56-28,28S52.56,440,68,440z M68,400   c6.616,0,12,5.384,12,12s-5.384,12-12,12s-12-5.384-12-12S61.384,400,68,400z"/>
	<path style="fill:#333333;" d="M344,412c0,15.44,12.56,28,28,28s28-12.56,28-28s-12.56-28-28-28S344,396.56,344,412z M384,412   c0,6.616-5.384,12-12,12s-12-5.384-12-12s5.384-12,12-12S384,405.384,384,412z"/>
</g>
<g>
</g>
<g>
</g>
<g>
</g>
<g>
</g>
<g>
</g>
<g>
</g>
<g>
</g>
<g>
</g>
<g>
</g>
<g>
</g>
<g>
</g>
<g>
</g>
<g>
</g>
<g>
</g>
<g>
</g>
</svg>
