<?xml version="1.0" encoding="iso-8859-1"?>
<!-- Generator: Adobe Illustrator 19.0.0, SVG Export Plug-In . SVG Version: 6.00 Build 0)  -->
<svg xmlns="http://www.w3.org/2000/svg" xmlns:xlink="http://www.w3.org/1999/xlink" version="1.1" id="Layer_1" x="0px" y="0px" viewBox="0 0 496.944 496.944" style="enable-background:new 0 0 496.944 496.944;" xml:space="preserve">
<path style="fill:#333333;" d="M200.472,296v16v24c0,16.36,9.896,30.416,24,36.608v112.336l24,12l24-12V372.608  c14.104-6.192,24-20.248,24-36.608v-24v-16V168h-96V296z M256.472,475.056l-8,4l-8-4V376h16V475.056z M280.472,336  c0,13.232-10.768,24-24,24h-16c-13.232,0-24-10.768-24-24v-24h64V336z M280.472,184v72h-8v16h8v24h-64v-24h40v-16h-40v-72H280.472z"/>
<path style="fill:#F9BA48;" d="M291.784,184H205.16l-24-24h-12.688c-13.232,0-24-10.768-24-24V0h208v136c0,13.232-10.768,24-24,24  h-12.688L291.784,184z"/>
<g>
	<path style="fill:#333333;" d="M112.472,56h-112v48h112v16H85.16l-24,24H0.472v16h67.312l24-24h20.688h8h24v-16h-16v-16V56v-8h16   V32h-32V56z M16.472,72h24v16h-24V72z M56.472,88V72h56v16H56.472z"/>
	<rect x="160.472" y="32" style="fill:#333333;" width="144" height="16"/>
	<rect x="320.472" y="32" style="fill:#333333;" width="16" height="16"/>
	<path style="fill:#333333;" d="M496.472,56h-112V32h-32v16h16v8v48v16h-16v16h32v-32h112V56z M384.472,72h56v16h-56V72z    M480.472,88h-24V72h24V88z"/>
	<rect x="192.472" y="88" style="fill:#333333;" width="16" height="16"/>
	<rect x="224.472" y="88" style="fill:#333333;" width="16" height="16"/>
	<rect x="256.472" y="88" style="fill:#333333;" width="16" height="16"/>
	<rect x="288.472" y="88" style="fill:#333333;" width="16" height="16"/>
</g>
<g>
</g>
<g>
</g>
<g>
</g>
<g>
</g>
<g>
</g>
<g>
</g>
<g>
</g>
<g>
</g>
<g>
</g>
<g>
</g>
<g>
</g>
<g>
</g>
<g>
</g>
<g>
</g>
<g>
</g>
</svg>
