<?xml version="1.0" encoding="iso-8859-1"?>
<!-- Generator: Adobe Illustrator 19.0.0, SVG Export Plug-In . SVG Version: 6.00 Build 0)  -->
<svg xmlns="http://www.w3.org/2000/svg" xmlns:xlink="http://www.w3.org/1999/xlink" version="1.1" id="Layer_1" x="0px" y="0px" viewBox="0 0 495.832 495.832" style="enable-background:new 0 0 495.832 495.832;" xml:space="preserve">
<path style="fill:#F9BA48;" d="M83.56,251.916H59.832c-19.848,0-36-16.152-36-36c0-19.848,16.152-36,36-36h188v72h-43.728H83.56z"/>
<g>
	<path style="fill:#333333;" d="M460.704,187.436l-44.872-13.472v-22.992l-54.112-27.056h-25.888v-8c0-13.232-10.768-24-24-24h-16   c-13.232,0-24,10.768-24,24v15.056l-40,20v116.944c0,0.76,0.152,1.472,0.224,2.208c-14.704-34.192-48.704-58.208-88.224-58.208   c-35.44,0-66.384,19.352-83.016,48h-0.984c-1.128,0-2.248-0.04-3.352-0.12l-0.728,10.032c-5.072,11.688-7.92,24.552-7.92,38.088   c0,52.936,43.064,96,96,96s96-43.064,96-96c0-9.184-1.376-18.048-3.792-26.464c4.328,6.312,11.584,10.464,19.792,10.464h147.312   l8-8h35.408c27.168,0,49.28-22.112,49.28-49.28C495.832,212.7,481.712,193.74,460.704,187.436z M143.832,387.916   c-44.112,0-80-35.888-80-80s35.888-80,80-80s80,35.888,80,80S187.944,387.916,143.832,387.916z M295.832,107.916h16   c4.416,0,8,3.584,8,8v8h-32v-8C287.832,111.5,291.416,107.916,295.832,107.916z M446.552,267.916H404.52l-8,8H255.832   c-4.416,0-8-3.584-8-8V160.86l24-12v23.056h16V140.86l1.888-0.944h68.216l41.896,20.944v25.008l56.28,16.888   c14.192,4.256,23.72,17.064,23.72,31.88C479.832,252.988,464.904,267.916,446.552,267.916z"/>
	<path style="fill:#333333;" d="M452,218.212l-29.4-9.8c-5.256-1.752-11.096-0.864-15.592,2.376   c-4.488,3.248-7.176,8.488-7.176,14.032v9.8c0,9.536,7.76,17.296,17.296,17.296h29.408c9.536,0,17.296-7.76,17.296-17.296   C463.832,227.164,459.072,220.564,452,218.212z M446.536,235.916h-29.408c-0.72,0-1.296-0.576-1.296-1.296v-9.8   c0-0.448,0.176-0.8,0.536-1.056c0.232-0.168,0.48-0.248,0.744-0.248c0.144,0,0.28,0.024,0.432,0.072l29.4,9.8   c0.528,0.176,0.888,0.672,0.888,1.232C447.832,235.34,447.256,235.916,446.536,235.916z"/>
	<path style="fill:#333333;" d="M338.176,177.572l10.344,10.344l-8.688,8.688l-8.688-8.688h-59.312v72h88v-43.312l-8.688-8.688   l8.688-8.688l10.344,10.344l11.312-11.312l-32-32L338.176,177.572z M343.832,243.916h-56v-40h36.688l19.312,19.312V243.916z"/>
	<path style="fill:#333333;" d="M19.128,199.172l-14.8-6.096C1.928,198.892,0.48,205.02,0,211.3l15.952,1.216   C16.312,207.924,17.368,203.436,19.128,199.172z"/>
	<path style="fill:#333333;" d="M17.048,226.22l-15.56,3.736c1.48,6.144,3.896,11.96,7.192,17.32l13.624-8.392   C19.896,234.972,18.128,230.708,17.048,226.22z"/>
	<path style="fill:#333333;" d="M36.688,178.476l-8.44-13.592c-5.336,3.312-10.112,7.424-14.176,12.208l12.2,10.36   C29.264,183.932,32.768,180.916,36.688,178.476z"/>
	<path style="fill:#333333;" d="M59.832,171.916h3.776v-16h-3.776c-4.832,0-9.64,0.576-14.296,1.712l3.8,15.544   C52.744,172.34,56.28,171.916,59.832,171.916z"/>
	<path style="fill:#333333;" d="M20.816,261.492c4.776,4.096,10.136,7.4,15.936,9.824l6.16-14.768   c-4.248-1.776-8.176-4.192-11.688-7.192L20.816,261.492z"/>
	<polygon style="fill:#333333;" points="87.832,171.916 95.688,171.916 95.688,155.916 87.832,155.916 79.904,155.916    79.832,155.916 79.832,171.916 79.904,171.916  "/>
	<rect x="111.832" y="155.916" style="fill:#333333;" width="15.856" height="16"/>
	<rect x="143.832" y="155.916" style="fill:#333333;" width="15.856" height="16"/>
	<rect x="175.832" y="155.916" style="fill:#333333;" width="15.856" height="16"/>
	<rect x="207.832" y="155.916" style="fill:#333333;" width="15.856" height="16"/>
</g>
<g>
</g>
<g>
</g>
<g>
</g>
<g>
</g>
<g>
</g>
<g>
</g>
<g>
</g>
<g>
</g>
<g>
</g>
<g>
</g>
<g>
</g>
<g>
</g>
<g>
</g>
<g>
</g>
<g>
</g>
</svg>
