<?xml version="1.0" encoding="iso-8859-1"?>
<!-- Generator: Adobe Illustrator 19.0.0, SVG Export Plug-In . SVG Version: 6.00 Build 0)  -->
<svg xmlns="http://www.w3.org/2000/svg" xmlns:xlink="http://www.w3.org/1999/xlink" version="1.1" id="Layer_1" x="0px" y="0px" viewBox="0 0 496 496" style="enable-background:new 0 0 496 496;" xml:space="preserve">
<g>
	<path style="fill:#333333;" d="M288,232v96h48v-96h4.944L352,209.888V184h-80v25.888L283.056,232H288z M304,254.24l16-4v23.512   l-16,4V254.24z M304,312v-17.76l16-4V312H304z M288,200h48v6.112L331.056,216H320v17.76l-16,4V216h-11.056L288,206.112V200z"/>
	<path style="fill:#333333;" d="M416,448c-10.416,0-19.216,6.712-22.528,16H344v-16h-8v-80h-48v80h-8v16h-49.472   c-3.312-9.288-12.112-16-22.528-16c-13.232,0-24,10.768-24,24s10.768,24,24,24c10.416,0,19.216-6.712,22.528-16H280v16h64v-16   h49.472c3.312,9.288,12.112,16,22.528,16c13.232,0,24-10.768,24-24S429.232,448,416,448z M208,480c-4.416,0-8-3.584-8-8   s3.584-8,8-8s8,3.584,8,8S212.416,480,208,480z M304,406.24l16-4v23.512l-16,4V406.24z M320,384v1.76l-16,4V384H320z M304,446.24   l16-4V448h-16V446.24z M328,480h-32v-16h32V480z M416,480c-4.416,0-8-3.584-8-8s3.584-8,8-8s8,3.584,8,8S420.416,480,416,480z"/>
</g>
<path style="fill:#F9BA48;" d="M192.736,392H144c-48.52,0-88-39.48-88-88V88c0-48.52,39.48-88,88-88h80  c12.664,0,25.088,4.36,34.984,12.272l22.472,17.976c1.408,1.128,3.184,1.752,5,1.752H328c13.232,0,24,10.768,24,24s-10.768,24-24,24  H144v232.008L352,312v72h-68.68c-5.792,0-11.232-2.248-15.32-6.344c-1.072-1.072-2.496-1.656-4-1.656h-35.864  c-1.12,0-2.2,0.328-3.136,0.952l-14.512,9.672C205.2,390.144,199.064,392,192.736,392z"/>
<g>
</g>
<g>
</g>
<g>
</g>
<g>
</g>
<g>
</g>
<g>
</g>
<g>
</g>
<g>
</g>
<g>
</g>
<g>
</g>
<g>
</g>
<g>
</g>
<g>
</g>
<g>
</g>
<g>
</g>
</svg>
