<?xml version="1.0" encoding="iso-8859-1"?>
<!-- Generator: Adobe Illustrator 19.0.0, SVG Export Plug-In . SVG Version: 6.00 Build 0)  -->
<svg xmlns="http://www.w3.org/2000/svg" xmlns:xlink="http://www.w3.org/1999/xlink" version="1.1" id="Layer_1" x="0px" y="0px" viewBox="0 0 496 496" style="enable-background:new 0 0 496 496;" xml:space="preserve">
<path style="fill:#F9BA48;" d="M368,456c-44.112,0-80-35.888-80-80V184h160v192C448,420.112,412.112,456,368,456z"/>
<g>
	<rect x="376" y="136" style="fill:#333333;" width="40" height="16"/>
	<rect x="376" y="160" style="fill:#333333;" width="40" height="16"/>
	<rect x="320" y="136" style="fill:#333333;" width="40" height="16"/>
	<rect x="320" y="160" style="fill:#333333;" width="40" height="16"/>
	<path style="fill:#333333;" d="M360,464c0,8.824-7.176,16-16,16h-96c-17.648,0-32-14.352-32-32V296c0-26.472-21.528-48-48-48   s-48,21.528-48,48v152c0,17.648-14.352,32-32,32s-32-14.352-32-32V119.28C78.664,115.456,96,95.744,96,72V40H80V8H64v32H32V8H16v32   H0v32c0,23.736,17.336,43.448,40,47.28V448c0,26.472,21.528,48,48,48s48-21.528,48-48V296c0-17.648,14.352-32,32-32   s32,14.352,32,32v152c0,26.472,21.528,48,48,48h96c17.648,0,32-14.352,32-32v-16h-16V464z M17.136,80H56V64H16v-8h64v8h-8v16h6.864   C75.288,93.768,62.872,104,48,104S20.712,93.768,17.136,80z"/>
	<path style="fill:#333333;" d="M392,272v110.552c0,7.424,1.76,14.84,5.072,21.472l19.776,39.552l14.312-7.16l-19.776-39.552   c-2.216-4.416-3.384-9.36-3.384-14.312V272c0-17.648,14.352-32,32-32h8v-16h-8C413.528,224,392,245.528,392,272z"/>
	<path style="fill:#333333;" d="M288,224h-24v56h24v-16h-8v-24h8h8c17.648,0,32,14.352,32,32v110.552   c0,4.944-1.168,9.888-3.384,14.312l-19.776,39.552l14.312,7.16l19.776-39.552C342.24,397.4,344,389.976,344,382.552V272   c0-26.472-21.528-48-48-48H288z"/>
	<path style="fill:#333333;" d="M470.848,89.848C463.864,39.056,419.792,0,368,0s-95.864,39.056-102.848,89.848L240,98.232V104   c0,15.728,2.936,31.344,8.56,45.936L120,144.344V136h-16v7.648v72.704V224h16v-8.344l168-7.304v-16.008l-168,7.304v-39.296   l168,7.304v-16.008l-21.576-0.936c-5.936-12.864-9.544-26.784-10.28-40.992l41.304-13.776l-9.296,46.48L288.04,184H304v-39.208   l13.272-66.368c0.744-3.72,4.04-6.424,7.848-6.424h85.76c3.808,0,7.104,2.704,7.84,6.432l13.28,66.36V184h16v19.528   c30.48-24.472,48-60.448,48-99.528v-5.768L470.848,89.848z M410.88,56h-85.76c-11.408,0-21.304,8.12-23.528,19.288l-0.52,2.592   l-18.608,6.2C291.592,45.048,326.92,16,368,16s76.408,29.048,85.544,68.08l-18.616-6.208l-0.512-2.584   C432.184,64.12,422.288,56,410.88,56z M448,182.016V144l-9.504-48.072l41.368,13.792C478.48,137.184,467.112,162.56,448,182.016z"/>
</g>
<g>
</g>
<g>
</g>
<g>
</g>
<g>
</g>
<g>
</g>
<g>
</g>
<g>
</g>
<g>
</g>
<g>
</g>
<g>
</g>
<g>
</g>
<g>
</g>
<g>
</g>
<g>
</g>
<g>
</g>
</svg>
