<?xml version="1.0" encoding="iso-8859-1"?>
<!-- Generator: Adobe Illustrator 19.0.0, SVG Export Plug-In . SVG Version: 6.00 Build 0)  -->
<svg xmlns="http://www.w3.org/2000/svg" xmlns:xlink="http://www.w3.org/1999/xlink" version="1.1" id="Layer_1" x="0px" y="0px" viewBox="0 0 496 496" style="enable-background:new 0 0 496 496;" xml:space="preserve">
<path style="fill:#F9BA48;" d="M104,424H80c-44.112,0-80-35.888-80-80v-72c0-44.112,35.888-80,80-80h336c44.112,0,80,35.888,80,80  v72c0,44.112-35.888,80-80,80h-24H104z"/>
<g>
	<path style="fill:#333333;" d="M128,400c-26.472,0-48,21.528-48,48s21.528,48,48,48s48-21.528,48-48S154.472,400,128,400z M128,480   c-17.648,0-32-14.352-32-32s14.352-32,32-32s32,14.352,32,32S145.648,480,128,480z"/>
	<circle style="fill:#333333;" cx="128" cy="448" r="8"/>
	<path style="fill:#333333;" d="M368,400c-26.472,0-48,21.528-48,48s21.528,48,48,48s48-21.528,48-48S394.472,400,368,400z M368,480   c-17.648,0-32-14.352-32-32s14.352-32,32-32s32,14.352,32,32S385.648,480,368,480z"/>
	<circle style="fill:#333333;" cx="368" cy="448" r="8"/>
	
		<rect x="24.008" y="169.38" transform="matrix(-0.7071 0.7071 -0.7071 -0.7071 190.41 305.1446)" style="fill:#333333;" width="16" height="45.256"/>
	<path style="fill:#333333;" d="M72,192h16v-16h40v-48h-24v-9.472c9.288-3.312,16-12.112,16-22.528c0-13.232-10.768-24-24-24   S72,82.768,72,96c0,10.416,6.712,19.216,16,22.528V128H64V96H40v16h8v16H32v48h40V192z M96,88c4.416,0,8,3.584,8,8s-3.584,8-8,8   s-8-3.584-8-8S91.584,88,96,88z M48,144h64v16H48V144z"/>
	<path style="fill:#333333;" d="M152.256,123.072C152.088,124.688,152,126.336,152,128v64h16v-16h40v-16h-40v-32   c0-17.648,14.352-32,32-32c17.648,0,32,14.352,32,32v32h-8v16h8v16h16v-64c0-1.664-0.088-3.312-0.256-4.928l46.168-59.352   C300.416,55.352,304,44.896,304,34.304C304,15.392,288.608,0,269.696,0C258.512,0,248,5.48,241.592,14.64L200,74.056   l-41.592-59.408C152,5.48,141.496,0.008,130.304,0.008C111.392,0,96,15.392,96,34.304c0,10.592,3.584,21.048,10.096,29.424   L152.256,123.072z M254.704,23.816c3.424-4.888,9.024-7.816,14.992-7.816C279.792,16,288,24.208,288,34.304   c0,7.064-2.392,14.024-6.72,19.592l-39.424,50.68c-6.008-10.704-15.992-18.88-27.944-22.504L254.704,23.816z M130.304,16   c5.968,0,11.568,2.92,14.992,7.816l40.792,58.264c-11.952,3.632-21.936,11.808-27.944,22.504l-39.416-50.672   C114.392,48.328,112,41.368,112,34.304C112,24.208,120.208,16,130.304,16z"/>
	<circle style="fill:#333333;" cx="200" cy="120" r="8"/>
	<path style="fill:#333333;" d="M424,120c0-18.976-9.512-35.752-24-45.888V40h-64v34.112c-14.488,10.136-24,26.912-24,45.888   c0,10.496,2.96,20.288,8,28.696V192h16v-26.112C345.08,172.24,356.104,176,368,176s22.92-3.76,32-10.112V192h16v-43.304   C421.048,140.288,424,130.496,424,120z M352,56h32v10.36c-5.072-1.52-10.44-2.36-16-2.36s-10.928,0.84-16,2.36V56z M368,160   c-22.056,0-40-17.944-40-40s17.944-40,40-40s40,17.944,40,40S390.056,160,368,160z"/>
	<rect x="344" y="96" style="fill:#333333;" width="48" height="16"/>
	<rect x="344" y="128" style="fill:#333333;" width="48" height="16"/>
	<rect x="64" y="232" style="fill:#333333;" width="272" height="16"/>
	<rect x="352" y="232" style="fill:#333333;" width="40" height="16"/>
	<path style="fill:#333333;" d="M144,376h208V264H144V376z M160,280h176v80H160V280z"/>
	<rect x="176" y="296" style="fill:#333333;" width="144" height="16"/>
</g>
<g>
</g>
<g>
</g>
<g>
</g>
<g>
</g>
<g>
</g>
<g>
</g>
<g>
</g>
<g>
</g>
<g>
</g>
<g>
</g>
<g>
</g>
<g>
</g>
<g>
</g>
<g>
</g>
<g>
</g>
</svg>
