<?xml version="1.0" encoding="iso-8859-1"?>
<!-- Generator: Adobe Illustrator 19.0.0, SVG Export Plug-In . SVG Version: 6.00 Build 0)  -->
<svg xmlns="http://www.w3.org/2000/svg" xmlns:xlink="http://www.w3.org/1999/xlink" version="1.1" id="Layer_1" x="0px" y="0px" viewBox="0 0 496 496" style="enable-background:new 0 0 496 496;" xml:space="preserve">
<g>
	
		<rect x="126.806" y="98.696" transform="matrix(-0.3162 0.9487 -0.9487 -0.3162 301.183 30.9044)" style="fill:#F9BA48;" width="25.296" height="50.6"/>
	<rect x="319.424" y="264" style="fill:#F9BA48;" width="80" height="232"/>
</g>
<g>
	<path style="fill:#333333;" d="M227.216,99.504l-18.688-6.232l2.76-9.656c7.872-27.568-6.256-56.4-32.888-67.048l-7.584-3.032   l-22.392,59.696l-18.68-6.224L154.024,0h-22.328C85.232,0,47.424,37.808,47.424,84.272c0,25.096,11.056,48.688,30.32,64.744   l17.68,14.736l0.008,19.992L87.424,432v8c0,30.872,25.128,56,56,56s56-25.128,56-56l-0.008-8.256L191.424,184v-21.872   L227.216,99.504z M179.752,35.248c14.16,9.392,20.992,27.016,16.144,43.976l-2.568,8.976l-29.72-9.904L179.752,35.248z    M175.432,184.256L183.424,432v8c0,22.056-17.944,40-40,40s-40-17.944-40-40l-0.008-7.744L111.424,184v-27.752l-23.44-19.528   c-15.608-13-24.56-32.12-24.56-52.448c0-37.48,30.368-68.008,67.792-68.272l-22.112,60.992l94.528,31.504l-28.208,49.376   L175.432,184.256z"/>
	<path style="fill:#333333;" d="M143.424,416c-13.232,0-24,10.768-24,24s10.768,24,24,24s24-10.768,24-24S156.656,416,143.424,416z    M143.424,448c-4.416,0-8-3.584-8-8s3.584-8,8-8s8,3.584,8,8S147.84,448,143.424,448z"/>
	<path style="fill:#333333;" d="M143.424,176c-13.232,0-24,10.768-24,24v176c0,13.232,10.768,24,24,24s24-10.768,24-24V200   C167.424,186.768,156.656,176,143.424,176z M151.424,376c0,4.416-3.584,8-8,8s-8-3.584-8-8V200c0-4.416,3.584-8,8-8s8,3.584,8,8   V376z"/>
	<path style="fill:#333333;" d="M404.136,160l44.44-80l-44.44-80h-89.424l-44.44,80l44.44,80H404.136z M324.136,16h70.576l35.56,64   l-35.56,64h-70.576l-35.56-64L324.136,16z"/>
	<path style="fill:#333333;" d="M359.424,128c26.472,0,48-21.528,48-48s-21.528-48-48-48s-48,21.528-48,48S332.952,128,359.424,128z    M359.424,48c17.648,0,32,14.352,32,32s-14.352,32-32,32s-32-14.352-32-32S341.776,48,359.424,48z"/>
	
		<rect x="318.621" y="287.986" transform="matrix(-0.9805 0.1963 -0.1963 -0.9805 769.9335 515.6565)" style="fill:#333333;" width="81.58" height="15.999"/>
	
		<rect x="318.617" y="327.99" transform="matrix(-0.9805 0.1963 -0.1963 -0.9805 777.7787 594.8869)" style="fill:#333333;" width="81.58" height="15.999"/>
	
		<rect x="318.613" y="367.986" transform="matrix(-0.9805 0.1963 -0.1963 -0.9805 785.6223 674.1014)" style="fill:#333333;" width="81.58" height="15.999"/>
	
		<rect x="318.617" y="407.974" transform="matrix(-0.9805 0.1963 -0.1963 -0.9805 793.4802 753.2986)" style="fill:#333333;" width="81.58" height="15.999"/>
	
		<rect x="318.613" y="447.986" transform="matrix(-0.9805 0.1963 -0.1963 -0.9805 801.327 832.5448)" style="fill:#333333;" width="81.58" height="15.999"/>
	<path style="fill:#333333;" d="M271.424,272h176v-80h-176V272z M335.424,256v-48h48v48H335.424z M431.424,256h-32v-48h32V256z    M287.424,208h32v48h-32V208z"/>
</g>
<g>
</g>
<g>
</g>
<g>
</g>
<g>
</g>
<g>
</g>
<g>
</g>
<g>
</g>
<g>
</g>
<g>
</g>
<g>
</g>
<g>
</g>
<g>
</g>
<g>
</g>
<g>
</g>
<g>
</g>
</svg>
