<svg id="Layer_35" enable-background="new 0 0 44 62" height="512" viewBox="0 0 44 62" width="512" xmlns="http://www.w3.org/2000/svg"><g><g><path d="m41.707 28.293c-2.391-2.391-3.707-5.569-3.707-8.95v-4.687c0-8.081-6.575-14.656-14.657-14.656h-2.687c-8.081 0-14.656 6.575-14.656 14.657v4.687c0 3.381-1.316 6.559-3.707 8.95-.228.227-.332.55-.28.867s.252.591.54.734c.139.07 3.233 1.597 8.212 2.773 2.008-1.072 4.261-1.668 6.588-1.668h2.648c-4.97 0-9-4.029-9-9v-5.316c0-2.753 1.874-5.153 4.545-5.821l2.696-.674c3.094 4.209 8.056 6.811 13.463 6.811h1.295l.001 4.998c0 4.972-4.03 9.002-9.001 9.002h2.647c2.327 0 4.58.596 6.587 1.668 4.979-1.177 8.073-2.704 8.213-2.773.288-.144.488-.417.54-.734.052-.318-.052-.641-.28-.868z" fill="#f0bc5e"/></g><g><path d="m27 23v-1h-10v1c0 2.757 2.243 5 5 5s5-2.243 5-5zm-7.829 1h5.657c-.413 1.164-1.525 2-2.829 2s-2.415-.836-2.828-2z"/><path d="m19 19h2c0-2.206-1.794-4-4-4s-4 1.794-4 4h2c0-1.103.897-2 2-2s2 .897 2 2z"/><path d="m42.52 42.862-1.946-2.336c.172-.424.314-.865.407-1.329l.097-.484-3.142-3.591c-2.194-2.507-5.142-4.18-8.357-4.821.53-.358 1.031-.768 1.494-1.231 1.889-1.889 2.929-4.401 2.928-7.072l-.001-5.998h-2.295c-6.582 0-12.516-4.156-14.765-10.342l-1.88.684c.414 1.139.939 2.216 1.56 3.223l-1.317.329c-3.122.78-5.303 3.573-5.303 6.791v5.315c0 3.453 1.76 6.502 4.429 8.299-3.218.64-6.169 2.313-8.365 4.822l-2.817 3.219-.305.47.097.483c.087.433.216.848.376 1.247l-1.935 2.322c-.954 1.145-1.48 2.597-1.48 4.088 0 2.23 1.188 4.329 3.101 5.477l5.983 3.589-1.331 5.984h28.493l-1.33-5.984 5.983-3.589c1.913-1.148 3.101-3.246 3.101-5.477 0-1.491-.526-2.943-1.48-4.088zm-6.089-6.423 2.48 2.834c-.574 2.053-2.387 3.543-4.512 3.71l-2.399-2.397v-7.432c1.676.758 3.192 1.869 4.431 3.285zm-.729 10.341-2.394 1.995-1.158-5.211 1.436 1.436h.414c.205 0 .401-.036.602-.053zm-8.676 13.22h-10.052c.635-.838 1.026-1.87 1.026-3v-5h-5.976l1.778-8h16.396l1.778 8h-5.976v5c0 1.13.391 2.162 1.026 3zm-17.628-15.053c.201.017.397.053.602.053h.414l1.436-1.436-1.158 5.211-2.394-1.995zm20.602-2.947h-2v-9.927c.68.071 1.345.211 2 .386zm-12-6.175c.324.103.657.175 1 .175 1.2 0 2.266-.678 3-1.728.734 1.05 1.8 1.728 3 1.728.343 0 .676-.072 1-.175v6.175h-8zm8-3.825v1.58c-.25.224-.585.42-1 .42-.851 0-1.59-.85-1.873-2h.873zm-7 2c-.415 0-.75-.197-1-.421v-1.579h2 .872c-.282 1.15-1.021 2-1.872 2zm-3 8h-2v-9.542c.655-.175 1.32-.314 2-.386zm-4-20v-5.315c0-2.299 1.558-4.293 3.788-4.851l2.066-.517c1.681 2.104 3.823 3.794 6.24 4.95-.679.722-1.094 1.684-1.094 2.733h2c0-.838.52-1.57 1.286-1.863.725.235 1.466.426 2.223.566.309.361.491.817.491 1.297h2c0-.35-.062-.692-.151-1.025.284.014.569.025.856.025h.295v3.998c0 2.138-.832 4.147-2.343 5.658s-3.52 2.344-5.657 2.344h-2-2c-4.41 0-7.999-3.588-8-8zm-4.431 14.439c1.239-1.416 2.755-2.528 4.431-3.285v7.432l-2.398 2.398c-2.125-.167-3.938-1.657-4.512-3.71zm-3.439 14.273c-1.314-.789-2.13-2.23-2.13-3.762 0-1.024.361-2.021 1.017-2.808l1.485-1.782c.756.929 1.735 1.655 2.852 2.107l-.92 1.533h-2.434v2h2.638l3.566 2.972-.664 2.986zm6.117 9.288 1.333-6h4.42v3c0 1.654-1.346 3-3 3zm20.753 0c-1.654 0-3-1.346-3-3v-3h4.42l1.333 6zm8.87-9.288-5.411 3.246-.664-2.986 3.567-2.972h2.638v-2h-2.434l-.921-1.535c1.11-.453 2.087-1.178 2.845-2.115l1.493 1.791c.656.788 1.017 1.785 1.017 2.809 0 1.532-.816 2.973-2.13 3.762z"/><path d="m29 47v-1h-14v1c0 2.757 2.243 5 5 5h4c2.757 0 5-2.243 5-5zm-5 3h-4c-1.304 0-2.416-.836-2.829-2h9.657c-.412 1.164-1.524 2-2.828 2z"/></g></g></svg>